<svg height="520.318125pt" version="1.1" viewBox="0 0 248.57791 520.318125" width="248.57791pt" xmlns="http://www.w3.org/2000/svg" xmlns:xlink="http://www.w3.org/1999/xlink" style="width: 100%; height: 100%;">
 <defs>
  <style type="text/css">
*{stroke-linecap:butt;stroke-linejoin:round;}
  </style>
 </defs>
 <g id="figure_1">
  <g id="patch_1">
   <path d="M -0 520.318125 
L 248.57791 520.318125 
L 248.57791 0 
L -0 0 
z
" style="fill:none;"></path>
  </g>
  <g id="axes_1">
   <g id="patch_2">
    <path d="M 40.88125 64.757647 
L 236.18125 64.757647 
L 236.18125 7.2 
L 40.88125 7.2 
z
" style="fill:#ffffff;"></path>
   </g>
   <g id="PolyCollection_1">
    <path clip-path="url(#p6df0a10000)" d="M 49.758523 64.756917 
L 49.758523 64.757647 
L 51.551911 64.757647 
L 53.3453 64.757647 
L 55.138688 64.757647 
L 56.932076 64.757647 
L 58.725465 64.757647 
L 60.518853 64.757647 
L 62.312242 64.757647 
L 64.10563 64.757647 
L 65.899019 64.757647 
L 67.692407 64.757647 
L 69.485795 64.757647 
L 71.279184 64.757647 
L 73.072572 64.757647 
L 74.865961 64.757647 
L 76.659349 64.757647 
L 78.452738 64.757647 
L 80.246126 64.757647 
L 82.039514 64.757647 
L 83.832903 64.757647 
L 85.626291 64.757647 
L 87.41968 64.757647 
L 89.213068 64.757647 
L 91.006457 64.757647 
L 92.799845 64.757647 
L 94.593233 64.757647 
L 96.386622 64.757647 
L 98.18001 64.757647 
L 99.973399 64.757647 
L 101.766787 64.757647 
L 103.560176 64.757647 
L 105.353564 64.757647 
L 107.146952 64.757647 
L 108.940341 64.757647 
L 110.733729 64.757647 
L 112.527118 64.757647 
L 114.320506 64.757647 
L 116.113895 64.757647 
L 117.907283 64.757647 
L 119.700671 64.757647 
L 121.49406 64.757647 
L 123.287448 64.757647 
L 125.080837 64.757647 
L 126.874225 64.757647 
L 128.667614 64.757647 
L 130.461002 64.757647 
L 132.25439 64.757647 
L 134.047779 64.757647 
L 135.841167 64.757647 
L 137.634556 64.757647 
L 139.427944 64.757647 
L 141.221333 64.757647 
L 143.014721 64.757647 
L 144.80811 64.757647 
L 146.601498 64.757647 
L 148.394886 64.757647 
L 150.188275 64.757647 
L 151.981663 64.757647 
L 153.775052 64.757647 
L 155.56844 64.757647 
L 157.361829 64.757647 
L 159.155217 64.757647 
L 160.948605 64.757647 
L 162.741994 64.757647 
L 164.535382 64.757647 
L 166.328771 64.757647 
L 168.122159 64.757647 
L 169.915548 64.757647 
L 171.708936 64.757647 
L 173.502324 64.757647 
L 175.295713 64.757647 
L 177.089101 64.757647 
L 178.88249 64.757647 
L 180.675878 64.757647 
L 182.469267 64.757647 
L 184.262655 64.757647 
L 186.056043 64.757647 
L 187.849432 64.757647 
L 189.64282 64.757647 
L 191.436209 64.757647 
L 193.229597 64.757647 
L 195.022986 64.757647 
L 196.816374 64.757647 
L 198.609762 64.757647 
L 200.403151 64.757647 
L 202.196539 64.757647 
L 203.989928 64.757647 
L 205.783316 64.757647 
L 207.576705 64.757647 
L 209.370093 64.757647 
L 211.163481 64.757647 
L 212.95687 64.757647 
L 214.750258 64.757647 
L 216.543647 64.757647 
L 218.337035 64.757647 
L 220.130424 64.757647 
L 221.923812 64.757647 
L 223.7172 64.757647 
L 225.510589 64.757647 
L 227.303977 64.757647 
L 227.303977 64.75705 
L 227.303977 64.75705 
L 225.510589 64.75535 
L 223.7172 64.750695 
L 221.923812 64.741069 
L 220.130424 64.726499 
L 218.337035 64.711464 
L 216.543647 64.70327 
L 214.750258 64.705388 
L 212.95687 64.712028 
L 211.163481 64.710328 
L 209.370093 64.688164 
L 207.576705 64.64062 
L 205.783316 64.571065 
L 203.989928 64.486826 
L 202.196539 64.392809 
L 200.403151 64.289014 
L 198.609762 64.174543 
L 196.816374 64.050348 
L 195.022986 63.909823 
L 193.229597 63.724251 
L 191.436209 63.448894 
L 189.64282 63.053742 
L 187.849432 62.538409 
L 186.056043 61.904683 
L 184.262655 61.132574 
L 182.469267 60.210127 
L 180.675878 59.169702 
L 178.88249 58.051739 
L 177.089101 56.831983 
L 175.295713 55.421162 
L 173.502324 53.748811 
L 171.708936 51.834313 
L 169.915548 49.771255 
L 168.122159 47.637787 
L 166.328771 45.405644 
L 164.535382 42.929368 
L 162.741994 40.052502 
L 160.948605 36.787285 
L 159.155217 33.420538 
L 157.361829 30.371089 
L 155.56844 27.852098 
L 153.775052 25.687212 
L 151.981663 23.50848 
L 150.188275 21.114604 
L 148.394886 18.61058 
L 146.601498 16.241689 
L 144.80811 14.165897 
L 143.014721 12.428974 
L 141.221333 11.102528 
L 139.427944 10.298306 
L 137.634556 9.988054 
L 135.841167 9.94084 
L 134.047779 9.973285 
L 132.25439 10.213619 
L 130.461002 10.991857 
L 128.667614 12.45694 
L 126.874225 14.382428 
L 125.080837 16.364328 
L 123.287448 18.145702 
L 121.49406 19.749315 
L 119.700671 21.399788 
L 117.907283 23.382066 
L 116.113895 25.913514 
L 114.320506 29.043582 
L 112.527118 32.604618 
L 110.733729 36.25203 
L 108.940341 39.625302 
L 107.146952 42.564777 
L 105.353564 45.178578 
L 103.560176 47.649316 
L 101.766787 49.993387 
L 99.973399 52.056045 
L 98.18001 53.708168 
L 96.386622 54.98814 
L 94.593233 56.064299 
L 92.799845 57.103298 
L 91.006457 58.173429 
L 89.213068 59.237134 
L 87.41968 60.208618 
L 85.626291 61.018441 
L 83.832903 61.643821 
L 82.039514 62.105871 
L 80.246126 62.45549 
L 78.452738 62.755472 
L 76.659349 63.05428 
L 74.865961 63.363333 
L 73.072572 63.662231 
L 71.279184 63.92745 
L 69.485795 64.149354 
L 67.692407 64.324972 
L 65.899019 64.451058 
L 64.10563 64.531637 
L 62.312242 64.583452 
L 60.518853 64.626038 
L 58.725465 64.668028 
L 56.932076 64.705782 
L 55.138688 64.732939 
L 53.3453 64.748115 
L 51.551911 64.754695 
L 49.758523 64.756917 
z
" style="fill:#1f77b4;fill-opacity:0.25;"></path>
   </g>
   <g id="matplotlib.axis_1">
    <g id="xtick_1">
     <g id="line2d_1">
      <defs>
       <path d="M 0 0 
L 0 3.5 
" id="mccce750f17" style="stroke:#000000;stroke-width:0.8;"></path>
      </defs>
      <g>
       <use style="stroke:#000000;stroke-width:0.8;" x="54.205531" xlink:href="#mccce750f17" y="64.757647"></use>
      </g>
     </g>
     <g id="text_1">
      <!-- −0.54 -->
      <defs>
       <path d="M 10.59375 35.5 
L 73.1875 35.5 
L 73.1875 27.203125 
L 10.59375 27.203125 
z
" id="DejaVuSans-8722"></path>
       <path d="M 31.78125 66.40625 
Q 24.171875 66.40625 20.328125 58.90625 
Q 16.5 51.421875 16.5 36.375 
Q 16.5 21.390625 20.328125 13.890625 
Q 24.171875 6.390625 31.78125 6.390625 
Q 39.453125 6.390625 43.28125 13.890625 
Q 47.125 21.390625 47.125 36.375 
Q 47.125 51.421875 43.28125 58.90625 
Q 39.453125 66.40625 31.78125 66.40625 
z
M 31.78125 74.21875 
Q 44.046875 74.21875 50.515625 64.515625 
Q 56.984375 54.828125 56.984375 36.375 
Q 56.984375 17.96875 50.515625 8.265625 
Q 44.046875 -1.421875 31.78125 -1.421875 
Q 19.53125 -1.421875 13.0625 8.265625 
Q 6.59375 17.96875 6.59375 36.375 
Q 6.59375 54.828125 13.0625 64.515625 
Q 19.53125 74.21875 31.78125 74.21875 
z
" id="DejaVuSans-48"></path>
       <path d="M 10.6875 12.40625 
L 21 12.40625 
L 21 0 
L 10.6875 0 
z
" id="DejaVuSans-46"></path>
       <path d="M 10.796875 72.90625 
L 49.515625 72.90625 
L 49.515625 64.59375 
L 19.828125 64.59375 
L 19.828125 46.734375 
Q 21.96875 47.46875 24.109375 47.828125 
Q 26.265625 48.1875 28.421875 48.1875 
Q 40.625 48.1875 47.75 41.5 
Q 54.890625 34.8125 54.890625 23.390625 
Q 54.890625 11.625 47.5625 5.09375 
Q 40.234375 -1.421875 26.90625 -1.421875 
Q 22.3125 -1.421875 17.546875 -0.640625 
Q 12.796875 0.140625 7.71875 1.703125 
L 7.71875 11.625 
Q 12.109375 9.234375 16.796875 8.0625 
Q 21.484375 6.890625 26.703125 6.890625 
Q 35.15625 6.890625 40.078125 11.328125 
Q 45.015625 15.765625 45.015625 23.390625 
Q 45.015625 31 40.078125 35.4375 
Q 35.15625 39.890625 26.703125 39.890625 
Q 22.75 39.890625 18.8125 39.015625 
Q 14.890625 38.140625 10.796875 36.28125 
z
" id="DejaVuSans-53"></path>
       <path d="M 37.796875 64.3125 
L 12.890625 25.390625 
L 37.796875 25.390625 
z
M 35.203125 72.90625 
L 47.609375 72.90625 
L 47.609375 25.390625 
L 58.015625 25.390625 
L 58.015625 17.1875 
L 47.609375 17.1875 
L 47.609375 0 
L 37.796875 0 
L 37.796875 17.1875 
L 4.890625 17.1875 
L 4.890625 26.703125 
z
" id="DejaVuSans-52"></path>
      </defs>
      <g transform="translate(38.882874 79.356085)scale(0.1 -0.1)">
       <use xlink:href="#DejaVuSans-8722"></use>
       <use x="83.789062" xlink:href="#DejaVuSans-48"></use>
       <use x="147.412109" xlink:href="#DejaVuSans-46"></use>
       <use x="179.199219" xlink:href="#DejaVuSans-53"></use>
       <use x="242.822266" xlink:href="#DejaVuSans-52"></use>
      </g>
     </g>
    </g>
    <g id="xtick_2">
     <g id="line2d_2">
      <g>
       <use style="stroke:#000000;stroke-width:0.8;" x="93.259634" xlink:href="#mccce750f17" y="64.757647"></use>
      </g>
     </g>
     <g id="text_2">
      <!-- −0.52 -->
      <defs>
       <path d="M 19.1875 8.296875 
L 53.609375 8.296875 
L 53.609375 0 
L 7.328125 0 
L 7.328125 8.296875 
Q 12.9375 14.109375 22.625 23.890625 
Q 32.328125 33.6875 34.8125 36.53125 
Q 39.546875 41.84375 41.421875 45.53125 
Q 43.3125 49.21875 43.3125 52.78125 
Q 43.3125 58.59375 39.234375 62.25 
Q 35.15625 65.921875 28.609375 65.921875 
Q 23.96875 65.921875 18.8125 64.3125 
Q 13.671875 62.703125 7.8125 59.421875 
L 7.8125 69.390625 
Q 13.765625 71.78125 18.9375 73 
Q 24.125 74.21875 28.421875 74.21875 
Q 39.75 74.21875 46.484375 68.546875 
Q 53.21875 62.890625 53.21875 53.421875 
Q 53.21875 48.921875 51.53125 44.890625 
Q 49.859375 40.875 45.40625 35.40625 
Q 44.1875 33.984375 37.640625 27.21875 
Q 31.109375 20.453125 19.1875 8.296875 
z
" id="DejaVuSans-50"></path>
      </defs>
      <g transform="translate(77.936978 79.356085)scale(0.1 -0.1)">
       <use xlink:href="#DejaVuSans-8722"></use>
       <use x="83.789062" xlink:href="#DejaVuSans-48"></use>
       <use x="147.412109" xlink:href="#DejaVuSans-46"></use>
       <use x="179.199219" xlink:href="#DejaVuSans-53"></use>
       <use x="242.822266" xlink:href="#DejaVuSans-50"></use>
      </g>
     </g>
    </g>
    <g id="xtick_3">
     <g id="line2d_3">
      <g>
       <use style="stroke:#000000;stroke-width:0.8;" x="132.313738" xlink:href="#mccce750f17" y="64.757647"></use>
      </g>
     </g>
     <g id="text_3">
      <!-- −0.50 -->
      <g transform="translate(116.991082 79.356085)scale(0.1 -0.1)">
       <use xlink:href="#DejaVuSans-8722"></use>
       <use x="83.789062" xlink:href="#DejaVuSans-48"></use>
       <use x="147.412109" xlink:href="#DejaVuSans-46"></use>
       <use x="179.199219" xlink:href="#DejaVuSans-53"></use>
       <use x="242.822266" xlink:href="#DejaVuSans-48"></use>
      </g>
     </g>
    </g>
    <g id="xtick_4">
     <g id="line2d_4">
      <g>
       <use style="stroke:#000000;stroke-width:0.8;" x="171.367842" xlink:href="#mccce750f17" y="64.757647"></use>
      </g>
     </g>
     <g id="text_4">
      <!-- −0.48 -->
      <defs>
       <path d="M 31.78125 34.625 
Q 24.75 34.625 20.71875 30.859375 
Q 16.703125 27.09375 16.703125 20.515625 
Q 16.703125 13.921875 20.71875 10.15625 
Q 24.75 6.390625 31.78125 6.390625 
Q 38.8125 6.390625 42.859375 10.171875 
Q 46.921875 13.96875 46.921875 20.515625 
Q 46.921875 27.09375 42.890625 30.859375 
Q 38.875 34.625 31.78125 34.625 
z
M 21.921875 38.8125 
Q 15.578125 40.375 12.03125 44.71875 
Q 8.5 49.078125 8.5 55.328125 
Q 8.5 64.0625 14.71875 69.140625 
Q 20.953125 74.21875 31.78125 74.21875 
Q 42.671875 74.21875 48.875 69.140625 
Q 55.078125 64.0625 55.078125 55.328125 
Q 55.078125 49.078125 51.53125 44.71875 
Q 48 40.375 41.703125 38.8125 
Q 48.828125 37.15625 52.796875 32.3125 
Q 56.78125 27.484375 56.78125 20.515625 
Q 56.78125 9.90625 50.3125 4.234375 
Q 43.84375 -1.421875 31.78125 -1.421875 
Q 19.734375 -1.421875 13.25 4.234375 
Q 6.78125 9.90625 6.78125 20.515625 
Q 6.78125 27.484375 10.78125 32.3125 
Q 14.796875 37.15625 21.921875 38.8125 
z
M 18.3125 54.390625 
Q 18.3125 48.734375 21.84375 45.5625 
Q 25.390625 42.390625 31.78125 42.390625 
Q 38.140625 42.390625 41.71875 45.5625 
Q 45.3125 48.734375 45.3125 54.390625 
Q 45.3125 60.0625 41.71875 63.234375 
Q 38.140625 66.40625 31.78125 66.40625 
Q 25.390625 66.40625 21.84375 63.234375 
Q 18.3125 60.0625 18.3125 54.390625 
z
" id="DejaVuSans-56"></path>
      </defs>
      <g transform="translate(156.045186 79.356085)scale(0.1 -0.1)">
       <use xlink:href="#DejaVuSans-8722"></use>
       <use x="83.789062" xlink:href="#DejaVuSans-48"></use>
       <use x="147.412109" xlink:href="#DejaVuSans-46"></use>
       <use x="179.199219" xlink:href="#DejaVuSans-52"></use>
       <use x="242.822266" xlink:href="#DejaVuSans-56"></use>
      </g>
     </g>
    </g>
    <g id="xtick_5">
     <g id="line2d_5">
      <g>
       <use style="stroke:#000000;stroke-width:0.8;" x="210.421946" xlink:href="#mccce750f17" y="64.757647"></use>
      </g>
     </g>
     <g id="text_5">
      <!-- −0.46 -->
      <defs>
       <path d="M 33.015625 40.375 
Q 26.375 40.375 22.484375 35.828125 
Q 18.609375 31.296875 18.609375 23.390625 
Q 18.609375 15.53125 22.484375 10.953125 
Q 26.375 6.390625 33.015625 6.390625 
Q 39.65625 6.390625 43.53125 10.953125 
Q 47.40625 15.53125 47.40625 23.390625 
Q 47.40625 31.296875 43.53125 35.828125 
Q 39.65625 40.375 33.015625 40.375 
z
M 52.59375 71.296875 
L 52.59375 62.3125 
Q 48.875 64.0625 45.09375 64.984375 
Q 41.3125 65.921875 37.59375 65.921875 
Q 27.828125 65.921875 22.671875 59.328125 
Q 17.53125 52.734375 16.796875 39.40625 
Q 19.671875 43.65625 24.015625 45.921875 
Q 28.375 48.1875 33.59375 48.1875 
Q 44.578125 48.1875 50.953125 41.515625 
Q 57.328125 34.859375 57.328125 23.390625 
Q 57.328125 12.15625 50.6875 5.359375 
Q 44.046875 -1.421875 33.015625 -1.421875 
Q 20.359375 -1.421875 13.671875 8.265625 
Q 6.984375 17.96875 6.984375 36.375 
Q 6.984375 53.65625 15.1875 63.9375 
Q 23.390625 74.21875 37.203125 74.21875 
Q 40.921875 74.21875 44.703125 73.484375 
Q 48.484375 72.75 52.59375 71.296875 
z
" id="DejaVuSans-54"></path>
      </defs>
      <g transform="translate(195.09929 79.356085)scale(0.1 -0.1)">
       <use xlink:href="#DejaVuSans-8722"></use>
       <use x="83.789062" xlink:href="#DejaVuSans-48"></use>
       <use x="147.412109" xlink:href="#DejaVuSans-46"></use>
       <use x="179.199219" xlink:href="#DejaVuSans-52"></use>
       <use x="242.822266" xlink:href="#DejaVuSans-54"></use>
      </g>
     </g>
    </g>
   </g>
   <g id="matplotlib.axis_2">
    <g id="ytick_1">
     <g id="line2d_6">
      <defs>
       <path d="M 0 0 
L -3.5 0 
" id="m4ade5c4b6b" style="stroke:#000000;stroke-width:0.8;"></path>
      </defs>
      <g>
       <use style="stroke:#000000;stroke-width:0.8;" x="40.88125" xlink:href="#m4ade5c4b6b" y="64.757647"></use>
      </g>
     </g>
     <g id="text_6">
      <!-- 0 -->
      <g transform="translate(27.51875 68.556866)scale(0.1 -0.1)">
       <use xlink:href="#DejaVuSans-48"></use>
      </g>
     </g>
    </g>
    <g id="ytick_2">
     <g id="line2d_7">
      <g>
       <use style="stroke:#000000;stroke-width:0.8;" x="40.88125" xlink:href="#m4ade5c4b6b" y="34.368108"></use>
      </g>
     </g>
     <g id="text_7">
      <!-- 20 -->
      <g transform="translate(21.15625 38.167327)scale(0.1 -0.1)">
       <use xlink:href="#DejaVuSans-50"></use>
       <use x="63.623047" xlink:href="#DejaVuSans-48"></use>
      </g>
     </g>
    </g>
    <g id="text_8">
     <!-- W_1 -->
     <defs>
      <path d="M 3.328125 72.90625 
L 13.28125 72.90625 
L 28.609375 11.28125 
L 43.890625 72.90625 
L 54.984375 72.90625 
L 70.3125 11.28125 
L 85.59375 72.90625 
L 95.609375 72.90625 
L 77.296875 0 
L 64.890625 0 
L 49.515625 63.28125 
L 33.984375 0 
L 21.578125 0 
z
" id="DejaVuSans-87"></path>
      <path d="M 50.984375 -16.609375 
L 50.984375 -23.578125 
L -0.984375 -23.578125 
L -0.984375 -16.609375 
z
" id="DejaVuSans-95"></path>
      <path d="M 12.40625 8.296875 
L 28.515625 8.296875 
L 28.515625 63.921875 
L 10.984375 60.40625 
L 10.984375 69.390625 
L 28.421875 72.90625 
L 38.28125 72.90625 
L 38.28125 8.296875 
L 54.390625 8.296875 
L 54.390625 0 
L 12.40625 0 
z
" id="DejaVuSans-49"></path>
     </defs>
     <g transform="translate(14.798438 46.603824)rotate(-90)scale(0.1 -0.1)">
      <use xlink:href="#DejaVuSans-87"></use>
      <use x="98.876953" xlink:href="#DejaVuSans-95"></use>
      <use x="148.876953" xlink:href="#DejaVuSans-49"></use>
     </g>
    </g>
   </g>
   <g id="line2d_8">
    <path clip-path="url(#p6df0a10000)" d="M 49.758523 64.756917 
L 51.551911 64.754695 
L 53.3453 64.748115 
L 55.138688 64.732939 
L 56.932076 64.705782 
L 58.725465 64.668028 
L 60.518853 64.626038 
L 62.312242 64.583452 
L 64.10563 64.531637 
L 65.899019 64.451058 
L 67.692407 64.324972 
L 69.485795 64.149354 
L 71.279184 63.92745 
L 73.072572 63.662231 
L 74.865961 63.363333 
L 76.659349 63.05428 
L 78.452738 62.755472 
L 80.246126 62.45549 
L 82.039514 62.105871 
L 83.832903 61.643821 
L 85.626291 61.018441 
L 87.41968 60.208618 
L 89.213068 59.237134 
L 91.006457 58.173429 
L 92.799845 57.103298 
L 94.593233 56.064299 
L 96.386622 54.98814 
L 98.18001 53.708168 
L 99.973399 52.056045 
L 101.766787 49.993387 
L 103.560176 47.649316 
L 105.353564 45.178578 
L 107.146952 42.564777 
L 108.940341 39.625302 
L 110.733729 36.25203 
L 112.527118 32.604618 
L 114.320506 29.043582 
L 116.113895 25.913514 
L 117.907283 23.382066 
L 119.700671 21.399788 
L 121.49406 19.749315 
L 123.287448 18.145702 
L 125.080837 16.364328 
L 126.874225 14.382428 
L 128.667614 12.45694 
L 130.461002 10.991857 
L 132.25439 10.213619 
L 134.047779 9.973285 
L 135.841167 9.94084 
L 137.634556 9.988054 
L 139.427944 10.298306 
L 141.221333 11.102528 
L 143.014721 12.428974 
L 144.80811 14.165897 
L 146.601498 16.241689 
L 148.394886 18.61058 
L 150.188275 21.114604 
L 151.981663 23.50848 
L 153.775052 25.687212 
L 155.56844 27.852098 
L 157.361829 30.371089 
L 159.155217 33.420538 
L 160.948605 36.787285 
L 162.741994 40.052502 
L 164.535382 42.929368 
L 166.328771 45.405644 
L 168.122159 47.637787 
L 169.915548 49.771255 
L 171.708936 51.834313 
L 173.502324 53.748811 
L 175.295713 55.421162 
L 177.089101 56.831983 
L 178.88249 58.051739 
L 180.675878 59.169702 
L 182.469267 60.210127 
L 184.262655 61.132574 
L 186.056043 61.904683 
L 187.849432 62.538409 
L 189.64282 63.053742 
L 191.436209 63.448894 
L 193.229597 63.724251 
L 195.022986 63.909823 
L 196.816374 64.050348 
L 198.609762 64.174543 
L 200.403151 64.289014 
L 202.196539 64.392809 
L 203.989928 64.486826 
L 205.783316 64.571065 
L 207.576705 64.64062 
L 209.370093 64.688164 
L 211.163481 64.710328 
L 212.95687 64.712028 
L 214.750258 64.705388 
L 216.543647 64.70327 
L 218.337035 64.711464 
L 220.130424 64.726499 
L 221.923812 64.741069 
L 223.7172 64.750695 
L 225.510589 64.75535 
L 227.303977 64.75705 
" style="fill:none;stroke:#1f77b4;stroke-linecap:square;stroke-width:1.5;"></path>
   </g>
   <g id="line2d_9">
    <path clip-path="url(#p6df0a10000)" d="M 127.135418 64.757647 
L 127.135418 7.2 
" style="fill:none;stroke:#1f77b4;stroke-dasharray:5.55,2.4;stroke-dashoffset:0;stroke-width:1.5;"></path>
   </g>
   <g id="patch_3">
    <path d="M 40.88125 64.757647 
L 40.88125 7.2 
" style="fill:none;stroke:#000000;stroke-linecap:square;stroke-linejoin:miter;stroke-width:0.8;"></path>
   </g>
   <g id="patch_4">
    <path d="M 236.18125 64.757647 
L 236.18125 7.2 
" style="fill:none;stroke:#000000;stroke-linecap:square;stroke-linejoin:miter;stroke-width:0.8;"></path>
   </g>
   <g id="patch_5">
    <path d="M 40.88125 64.757647 
L 236.18125 64.757647 
" style="fill:none;stroke:#000000;stroke-linecap:square;stroke-linejoin:miter;stroke-width:0.8;"></path>
   </g>
   <g id="patch_6">
    <path d="M 40.88125 7.2 
L 236.18125 7.2 
" style="fill:none;stroke:#000000;stroke-linecap:square;stroke-linejoin:miter;stroke-width:0.8;"></path>
   </g>
  </g>
  <g id="axes_2">
   <g id="patch_7">
    <path d="M 40.88125 151.094118 
L 236.18125 151.094118 
L 236.18125 93.536471 
L 40.88125 93.536471 
z
" style="fill:#ffffff;"></path>
   </g>
   <g id="PolyCollection_2">
    <path clip-path="url(#p71db9f3c8b)" d="M 49.758523 151.093392 
L 49.758523 151.094118 
L 51.551911 151.094118 
L 53.3453 151.094118 
L 55.138688 151.094118 
L 56.932076 151.094118 
L 58.725465 151.094118 
L 60.518853 151.094118 
L 62.312242 151.094118 
L 64.10563 151.094118 
L 65.899019 151.094118 
L 67.692407 151.094118 
L 69.485795 151.094118 
L 71.279184 151.094118 
L 73.072572 151.094118 
L 74.865961 151.094118 
L 76.659349 151.094118 
L 78.452738 151.094118 
L 80.246126 151.094118 
L 82.039514 151.094118 
L 83.832903 151.094118 
L 85.626291 151.094118 
L 87.41968 151.094118 
L 89.213068 151.094118 
L 91.006457 151.094118 
L 92.799845 151.094118 
L 94.593233 151.094118 
L 96.386622 151.094118 
L 98.18001 151.094118 
L 99.973399 151.094118 
L 101.766787 151.094118 
L 103.560176 151.094118 
L 105.353564 151.094118 
L 107.146952 151.094118 
L 108.940341 151.094118 
L 110.733729 151.094118 
L 112.527118 151.094118 
L 114.320506 151.094118 
L 116.113895 151.094118 
L 117.907283 151.094118 
L 119.700671 151.094118 
L 121.49406 151.094118 
L 123.287448 151.094118 
L 125.080837 151.094118 
L 126.874225 151.094118 
L 128.667614 151.094118 
L 130.461002 151.094118 
L 132.25439 151.094118 
L 134.047779 151.094118 
L 135.841167 151.094118 
L 137.634556 151.094118 
L 139.427944 151.094118 
L 141.221333 151.094118 
L 143.014721 151.094118 
L 144.80811 151.094118 
L 146.601498 151.094118 
L 148.394886 151.094118 
L 150.188275 151.094118 
L 151.981663 151.094118 
L 153.775052 151.094118 
L 155.56844 151.094118 
L 157.361829 151.094118 
L 159.155217 151.094118 
L 160.948605 151.094118 
L 162.741994 151.094118 
L 164.535382 151.094118 
L 166.328771 151.094118 
L 168.122159 151.094118 
L 169.915548 151.094118 
L 171.708936 151.094118 
L 173.502324 151.094118 
L 175.295713 151.094118 
L 177.089101 151.094118 
L 178.88249 151.094118 
L 180.675878 151.094118 
L 182.469267 151.094118 
L 184.262655 151.094118 
L 186.056043 151.094118 
L 187.849432 151.094118 
L 189.64282 151.094118 
L 191.436209 151.094118 
L 193.229597 151.094118 
L 195.022986 151.094118 
L 196.816374 151.094118 
L 198.609762 151.094118 
L 200.403151 151.094118 
L 202.196539 151.094118 
L 203.989928 151.094118 
L 205.783316 151.094118 
L 207.576705 151.094118 
L 209.370093 151.094118 
L 211.163481 151.094118 
L 212.95687 151.094118 
L 214.750258 151.094118 
L 216.543647 151.094118 
L 218.337035 151.094118 
L 220.130424 151.094118 
L 221.923812 151.094118 
L 223.7172 151.094118 
L 225.510589 151.094118 
L 227.303977 151.094118 
L 227.303977 151.093539 
L 227.303977 151.093539 
L 225.510589 151.092061 
L 223.7172 151.088163 
L 221.923812 151.080016 
L 220.130424 151.066588 
L 218.337035 151.049064 
L 216.543647 151.030318 
L 214.750258 151.011808 
L 212.95687 150.991281 
L 211.163481 150.964581 
L 209.370093 150.928644 
L 207.576705 150.880315 
L 205.783316 150.81277 
L 203.989928 150.717122 
L 202.196539 150.589585 
L 200.403151 150.434018 
L 198.609762 150.253511 
L 196.816374 150.040265 
L 195.022986 149.777233 
L 193.229597 149.448837 
L 191.436209 149.045721 
L 189.64282 148.562036 
L 187.849432 147.998956 
L 186.056043 147.372032 
L 184.262655 146.701391 
L 182.469267 145.989137 
L 180.675878 145.218822 
L 178.88249 144.378305 
L 177.089101 143.45538 
L 175.295713 142.39023 
L 173.502324 141.057442 
L 171.708936 139.345048 
L 169.915548 137.274576 
L 168.122159 135.027688 
L 166.328771 132.829107 
L 164.535382 130.783751 
L 162.741994 128.807732 
L 160.948605 126.70077 
L 159.155217 124.292304 
L 157.361829 121.558228 
L 155.56844 118.649222 
L 153.775052 115.820048 
L 151.981663 113.279706 
L 150.188275 111.044128 
L 148.394886 108.925177 
L 146.601498 106.70046 
L 144.80811 104.315952 
L 143.014721 101.927212 
L 141.221333 99.775761 
L 139.427944 98.06303 
L 137.634556 96.909066 
L 135.841167 96.341065 
L 134.047779 96.277311 
L 132.25439 96.564097 
L 130.461002 97.09723 
L 128.667614 97.935227 
L 126.874225 99.254898 
L 125.080837 101.132762 
L 123.287448 103.36229 
L 121.49406 105.540173 
L 119.700671 107.375396 
L 117.907283 108.9229 
L 116.113895 110.52316 
L 114.320506 112.511945 
L 112.527118 114.956115 
L 110.733729 117.636228 
L 108.940341 120.265396 
L 107.146952 122.708187 
L 105.353564 124.999645 
L 103.560176 127.215104 
L 101.766787 129.374517 
L 99.973399 131.454395 
L 98.18001 133.43855 
L 96.386622 135.336455 
L 94.593233 137.169108 
L 92.799845 138.949928 
L 91.006457 140.669692 
L 89.213068 142.287798 
L 87.41968 143.740705 
L 85.626291 144.96832 
L 83.832903 145.941843 
L 82.039514 146.680171 
L 80.246126 147.249544 
L 78.452738 147.738598 
L 76.659349 148.214725 
L 74.865961 148.6941 
L 73.072572 149.150765 
L 71.279184 149.550817 
L 69.485795 149.879551 
L 67.692407 150.14628 
L 65.899019 150.371446 
L 64.10563 150.569326 
L 62.312242 150.74035 
L 60.518853 150.877089 
L 58.725465 150.974728 
L 56.932076 151.036002 
L 55.138688 151.069435 
L 53.3453 151.085103 
L 51.551911 151.091325 
L 49.758523 151.093392 
z
" style="fill:#1f77b4;fill-opacity:0.25;"></path>
   </g>
   <g id="matplotlib.axis_3">
    <g id="xtick_6">
     <g id="line2d_10">
      <g>
       <use style="stroke:#000000;stroke-width:0.8;" x="41.595326" xlink:href="#mccce750f17" y="151.094118"></use>
      </g>
     </g>
     <g id="text_9">
      <!-- 0.10 -->
      <g transform="translate(30.462513 165.692555)scale(0.1 -0.1)">
       <use xlink:href="#DejaVuSans-48"></use>
       <use x="63.623047" xlink:href="#DejaVuSans-46"></use>
       <use x="95.410156" xlink:href="#DejaVuSans-49"></use>
       <use x="159.033203" xlink:href="#DejaVuSans-48"></use>
      </g>
     </g>
    </g>
    <g id="xtick_7">
     <g id="line2d_11">
      <g>
       <use style="stroke:#000000;stroke-width:0.8;" x="80.58985" xlink:href="#mccce750f17" y="151.094118"></use>
      </g>
     </g>
     <g id="text_10">
      <!-- 0.12 -->
      <g transform="translate(69.457037 165.692555)scale(0.1 -0.1)">
       <use xlink:href="#DejaVuSans-48"></use>
       <use x="63.623047" xlink:href="#DejaVuSans-46"></use>
       <use x="95.410156" xlink:href="#DejaVuSans-49"></use>
       <use x="159.033203" xlink:href="#DejaVuSans-50"></use>
      </g>
     </g>
    </g>
    <g id="xtick_8">
     <g id="line2d_12">
      <g>
       <use style="stroke:#000000;stroke-width:0.8;" x="119.584374" xlink:href="#mccce750f17" y="151.094118"></use>
      </g>
     </g>
     <g id="text_11">
      <!-- 0.14 -->
      <g transform="translate(108.451562 165.692555)scale(0.1 -0.1)">
       <use xlink:href="#DejaVuSans-48"></use>
       <use x="63.623047" xlink:href="#DejaVuSans-46"></use>
       <use x="95.410156" xlink:href="#DejaVuSans-49"></use>
       <use x="159.033203" xlink:href="#DejaVuSans-52"></use>
      </g>
     </g>
    </g>
    <g id="xtick_9">
     <g id="line2d_13">
      <g>
       <use style="stroke:#000000;stroke-width:0.8;" x="158.578899" xlink:href="#mccce750f17" y="151.094118"></use>
      </g>
     </g>
     <g id="text_12">
      <!-- 0.16 -->
      <g transform="translate(147.446086 165.692555)scale(0.1 -0.1)">
       <use xlink:href="#DejaVuSans-48"></use>
       <use x="63.623047" xlink:href="#DejaVuSans-46"></use>
       <use x="95.410156" xlink:href="#DejaVuSans-49"></use>
       <use x="159.033203" xlink:href="#DejaVuSans-54"></use>
      </g>
     </g>
    </g>
    <g id="xtick_10">
     <g id="line2d_14">
      <g>
       <use style="stroke:#000000;stroke-width:0.8;" x="197.573423" xlink:href="#mccce750f17" y="151.094118"></use>
      </g>
     </g>
     <g id="text_13">
      <!-- 0.18 -->
      <g transform="translate(186.44061 165.692555)scale(0.1 -0.1)">
       <use xlink:href="#DejaVuSans-48"></use>
       <use x="63.623047" xlink:href="#DejaVuSans-46"></use>
       <use x="95.410156" xlink:href="#DejaVuSans-49"></use>
       <use x="159.033203" xlink:href="#DejaVuSans-56"></use>
      </g>
     </g>
    </g>
   </g>
   <g id="matplotlib.axis_4">
    <g id="ytick_3">
     <g id="line2d_15">
      <g>
       <use style="stroke:#000000;stroke-width:0.8;" x="40.88125" xlink:href="#m4ade5c4b6b" y="151.094118"></use>
      </g>
     </g>
     <g id="text_14">
      <!-- 0 -->
      <g transform="translate(27.51875 154.893336)scale(0.1 -0.1)">
       <use xlink:href="#DejaVuSans-48"></use>
      </g>
     </g>
    </g>
    <g id="ytick_4">
     <g id="line2d_16">
      <g>
       <use style="stroke:#000000;stroke-width:0.8;" x="40.88125" xlink:href="#m4ade5c4b6b" y="119.623535"></use>
      </g>
     </g>
     <g id="text_15">
      <!-- 20 -->
      <g transform="translate(21.15625 123.422754)scale(0.1 -0.1)">
       <use xlink:href="#DejaVuSans-50"></use>
       <use x="63.623047" xlink:href="#DejaVuSans-48"></use>
      </g>
     </g>
    </g>
    <g id="text_16">
     <!-- W_2 -->
     <g transform="translate(14.798438 132.940294)rotate(-90)scale(0.1 -0.1)">
      <use xlink:href="#DejaVuSans-87"></use>
      <use x="98.876953" xlink:href="#DejaVuSans-95"></use>
      <use x="148.876953" xlink:href="#DejaVuSans-50"></use>
     </g>
    </g>
   </g>
   <g id="line2d_17">
    <path clip-path="url(#p71db9f3c8b)" d="M 49.758523 151.093392 
L 51.551911 151.091325 
L 53.3453 151.085103 
L 55.138688 151.069435 
L 56.932076 151.036002 
L 58.725465 150.974728 
L 60.518853 150.877089 
L 62.312242 150.74035 
L 64.10563 150.569326 
L 65.899019 150.371446 
L 67.692407 150.14628 
L 69.485795 149.879551 
L 71.279184 149.550817 
L 73.072572 149.150765 
L 74.865961 148.6941 
L 76.659349 148.214725 
L 78.452738 147.738598 
L 80.246126 147.249544 
L 82.039514 146.680171 
L 83.832903 145.941843 
L 85.626291 144.96832 
L 87.41968 143.740705 
L 89.213068 142.287798 
L 91.006457 140.669692 
L 92.799845 138.949928 
L 94.593233 137.169108 
L 96.386622 135.336455 
L 98.18001 133.43855 
L 99.973399 131.454395 
L 101.766787 129.374517 
L 103.560176 127.215104 
L 105.353564 124.999645 
L 107.146952 122.708187 
L 108.940341 120.265396 
L 110.733729 117.636228 
L 112.527118 114.956115 
L 114.320506 112.511945 
L 116.113895 110.52316 
L 117.907283 108.9229 
L 119.700671 107.375396 
L 121.49406 105.540173 
L 123.287448 103.36229 
L 125.080837 101.132762 
L 126.874225 99.254898 
L 128.667614 97.935227 
L 130.461002 97.09723 
L 132.25439 96.564097 
L 134.047779 96.277311 
L 135.841167 96.341065 
L 137.634556 96.909066 
L 139.427944 98.06303 
L 141.221333 99.775761 
L 143.014721 101.927212 
L 144.80811 104.315952 
L 146.601498 106.70046 
L 148.394886 108.925177 
L 150.188275 111.044128 
L 151.981663 113.279706 
L 153.775052 115.820048 
L 155.56844 118.649222 
L 157.361829 121.558228 
L 159.155217 124.292304 
L 160.948605 126.70077 
L 162.741994 128.807732 
L 164.535382 130.783751 
L 166.328771 132.829107 
L 168.122159 135.027688 
L 169.915548 137.274576 
L 171.708936 139.345048 
L 173.502324 141.057442 
L 175.295713 142.39023 
L 177.089101 143.45538 
L 178.88249 144.378305 
L 180.675878 145.218822 
L 182.469267 145.989137 
L 184.262655 146.701391 
L 186.056043 147.372032 
L 187.849432 147.998956 
L 189.64282 148.562036 
L 191.436209 149.045721 
L 193.229597 149.448837 
L 195.022986 149.777233 
L 196.816374 150.040265 
L 198.609762 150.253511 
L 200.403151 150.434018 
L 202.196539 150.589585 
L 203.989928 150.717122 
L 205.783316 150.81277 
L 207.576705 150.880315 
L 209.370093 150.928644 
L 211.163481 150.964581 
L 212.95687 150.991281 
L 214.750258 151.011808 
L 216.543647 151.030318 
L 218.337035 151.049064 
L 220.130424 151.066588 
L 221.923812 151.080016 
L 223.7172 151.088163 
L 225.510589 151.092061 
L 227.303977 151.093539 
" style="fill:none;stroke:#1f77b4;stroke-linecap:square;stroke-width:1.5;"></path>
   </g>
   <g id="line2d_18">
    <path clip-path="url(#p71db9f3c8b)" d="M 149.840536 151.094118 
L 149.840536 93.536471 
" style="fill:none;stroke:#1f77b4;stroke-dasharray:5.55,2.4;stroke-dashoffset:0;stroke-width:1.5;"></path>
   </g>
   <g id="patch_8">
    <path d="M 40.88125 151.094118 
L 40.88125 93.536471 
" style="fill:none;stroke:#000000;stroke-linecap:square;stroke-linejoin:miter;stroke-width:0.8;"></path>
   </g>
   <g id="patch_9">
    <path d="M 236.18125 151.094118 
L 236.18125 93.536471 
" style="fill:none;stroke:#000000;stroke-linecap:square;stroke-linejoin:miter;stroke-width:0.8;"></path>
   </g>
   <g id="patch_10">
    <path d="M 40.88125 151.094118 
L 236.18125 151.094118 
" style="fill:none;stroke:#000000;stroke-linecap:square;stroke-linejoin:miter;stroke-width:0.8;"></path>
   </g>
   <g id="patch_11">
    <path d="M 40.88125 93.536471 
L 236.18125 93.536471 
" style="fill:none;stroke:#000000;stroke-linecap:square;stroke-linejoin:miter;stroke-width:0.8;"></path>
   </g>
  </g>
  <g id="axes_3">
   <g id="patch_12">
    <path d="M 40.88125 237.430588 
L 236.18125 237.430588 
L 236.18125 179.872941 
L 40.88125 179.872941 
z
" style="fill:#ffffff;"></path>
   </g>
   <g id="PolyCollection_3">
    <path clip-path="url(#p2fbd3ce93d)" d="M 49.758523 237.429992 
L 49.758523 237.430588 
L 51.551911 237.430588 
L 53.3453 237.430588 
L 55.138688 237.430588 
L 56.932076 237.430588 
L 58.725465 237.430588 
L 60.518853 237.430588 
L 62.312242 237.430588 
L 64.10563 237.430588 
L 65.899019 237.430588 
L 67.692407 237.430588 
L 69.485795 237.430588 
L 71.279184 237.430588 
L 73.072572 237.430588 
L 74.865961 237.430588 
L 76.659349 237.430588 
L 78.452738 237.430588 
L 80.246126 237.430588 
L 82.039514 237.430588 
L 83.832903 237.430588 
L 85.626291 237.430588 
L 87.41968 237.430588 
L 89.213068 237.430588 
L 91.006457 237.430588 
L 92.799845 237.430588 
L 94.593233 237.430588 
L 96.386622 237.430588 
L 98.18001 237.430588 
L 99.973399 237.430588 
L 101.766787 237.430588 
L 103.560176 237.430588 
L 105.353564 237.430588 
L 107.146952 237.430588 
L 108.940341 237.430588 
L 110.733729 237.430588 
L 112.527118 237.430588 
L 114.320506 237.430588 
L 116.113895 237.430588 
L 117.907283 237.430588 
L 119.700671 237.430588 
L 121.49406 237.430588 
L 123.287448 237.430588 
L 125.080837 237.430588 
L 126.874225 237.430588 
L 128.667614 237.430588 
L 130.461002 237.430588 
L 132.25439 237.430588 
L 134.047779 237.430588 
L 135.841167 237.430588 
L 137.634556 237.430588 
L 139.427944 237.430588 
L 141.221333 237.430588 
L 143.014721 237.430588 
L 144.80811 237.430588 
L 146.601498 237.430588 
L 148.394886 237.430588 
L 150.188275 237.430588 
L 151.981663 237.430588 
L 153.775052 237.430588 
L 155.56844 237.430588 
L 157.361829 237.430588 
L 159.155217 237.430588 
L 160.948605 237.430588 
L 162.741994 237.430588 
L 164.535382 237.430588 
L 166.328771 237.430588 
L 168.122159 237.430588 
L 169.915548 237.430588 
L 171.708936 237.430588 
L 173.502324 237.430588 
L 175.295713 237.430588 
L 177.089101 237.430588 
L 178.88249 237.430588 
L 180.675878 237.430588 
L 182.469267 237.430588 
L 184.262655 237.430588 
L 186.056043 237.430588 
L 187.849432 237.430588 
L 189.64282 237.430588 
L 191.436209 237.430588 
L 193.229597 237.430588 
L 195.022986 237.430588 
L 196.816374 237.430588 
L 198.609762 237.430588 
L 200.403151 237.430588 
L 202.196539 237.430588 
L 203.989928 237.430588 
L 205.783316 237.430588 
L 207.576705 237.430588 
L 209.370093 237.430588 
L 211.163481 237.430588 
L 212.95687 237.430588 
L 214.750258 237.430588 
L 216.543647 237.430588 
L 218.337035 237.430588 
L 220.130424 237.430588 
L 221.923812 237.430588 
L 223.7172 237.430588 
L 225.510589 237.430588 
L 227.303977 237.430588 
L 227.303977 237.429848 
L 227.303977 237.429848 
L 225.510589 237.427597 
L 223.7172 237.420646 
L 221.923812 237.403211 
L 220.130424 237.36766 
L 218.337035 237.308861 
L 216.543647 237.230459 
L 214.750258 237.146686 
L 212.95687 237.073623 
L 211.163481 237.013823 
L 209.370093 236.94887 
L 207.576705 236.850142 
L 205.783316 236.700525 
L 203.989928 236.509149 
L 202.196539 236.306315 
L 200.403151 236.117687 
L 198.609762 235.930457 
L 196.816374 235.6755 
L 195.022986 235.245018 
L 193.229597 234.542958 
L 191.436209 233.539292 
L 189.64282 232.285994 
L 187.849432 230.875982 
L 186.056043 229.381693 
L 184.262655 227.830649 
L 182.469267 226.223128 
L 180.675878 224.546037 
L 178.88249 222.760968 
L 177.089101 220.795467 
L 175.295713 218.567882 
L 173.502324 216.034815 
L 171.708936 213.218956 
L 169.915548 210.192498 
L 168.122159 207.046237 
L 166.328771 203.888178 
L 164.535382 200.849981 
L 162.741994 198.044242 
L 160.948605 195.497343 
L 159.155217 193.155921 
L 157.361829 190.985502 
L 155.56844 189.045459 
L 153.775052 187.438407 
L 151.981663 186.197271 
L 150.188275 185.257195 
L 148.394886 184.522431 
L 146.601498 183.908425 
L 144.80811 183.348445 
L 143.014721 182.860045 
L 141.221333 182.613782 
L 139.427944 182.844655 
L 137.634556 183.664695 
L 135.841167 185.007358 
L 134.047779 186.747025 
L 132.25439 188.803868 
L 130.461002 191.121565 
L 128.667614 193.620288 
L 126.874225 196.226815 
L 125.080837 198.915848 
L 123.287448 201.684576 
L 121.49406 204.517583 
L 119.700671 207.39229 
L 117.907283 210.266734 
L 116.113895 213.038592 
L 114.320506 215.568665 
L 112.527118 217.786336 
L 110.733729 219.75444 
L 108.940341 221.596556 
L 107.146952 223.350775 
L 105.353564 224.920805 
L 103.560176 226.206552 
L 101.766787 227.271751 
L 99.973399 228.329503 
L 98.18001 229.543185 
L 96.386622 230.874356 
L 94.593233 232.140725 
L 92.799845 233.190355 
L 91.006457 233.998553 
L 89.213068 234.628089 
L 87.41968 235.142778 
L 85.626291 235.568201 
L 83.832903 235.907117 
L 82.039514 236.165061 
L 80.246126 236.357543 
L 78.452738 236.504619 
L 76.659349 236.626286 
L 74.865961 236.739211 
L 73.072572 236.852064 
L 71.279184 236.96434 
L 69.485795 237.070761 
L 67.692407 237.165168 
L 65.899019 237.241506 
L 64.10563 237.296245 
L 62.312242 237.332212 
L 60.518853 237.357647 
L 58.725465 237.379623 
L 56.932076 237.399428 
L 55.138688 237.414685 
L 53.3453 237.423974 
L 51.551911 237.428371 
L 49.758523 237.429992 
z
" style="fill:#1f77b4;fill-opacity:0.25;"></path>
   </g>
   <g id="matplotlib.axis_5">
    <g id="xtick_11">
     <g id="line2d_19">
      <g>
       <use style="stroke:#000000;stroke-width:0.8;" x="69.150187" xlink:href="#mccce750f17" y="237.430588"></use>
      </g>
     </g>
     <g id="text_17">
      <!-- 0.72 -->
      <defs>
       <path d="M 8.203125 72.90625 
L 55.078125 72.90625 
L 55.078125 68.703125 
L 28.609375 0 
L 18.3125 0 
L 43.21875 64.59375 
L 8.203125 64.59375 
z
" id="DejaVuSans-55"></path>
      </defs>
      <g transform="translate(58.017375 252.029026)scale(0.1 -0.1)">
       <use xlink:href="#DejaVuSans-48"></use>
       <use x="63.623047" xlink:href="#DejaVuSans-46"></use>
       <use x="95.410156" xlink:href="#DejaVuSans-55"></use>
       <use x="159.033203" xlink:href="#DejaVuSans-50"></use>
      </g>
     </g>
    </g>
    <g id="xtick_12">
     <g id="line2d_20">
      <g>
       <use style="stroke:#000000;stroke-width:0.8;" x="107.964573" xlink:href="#mccce750f17" y="237.430588"></use>
      </g>
     </g>
     <g id="text_18">
      <!-- 0.74 -->
      <g transform="translate(96.831761 252.029026)scale(0.1 -0.1)">
       <use xlink:href="#DejaVuSans-48"></use>
       <use x="63.623047" xlink:href="#DejaVuSans-46"></use>
       <use x="95.410156" xlink:href="#DejaVuSans-55"></use>
       <use x="159.033203" xlink:href="#DejaVuSans-52"></use>
      </g>
     </g>
    </g>
    <g id="xtick_13">
     <g id="line2d_21">
      <g>
       <use style="stroke:#000000;stroke-width:0.8;" x="146.778959" xlink:href="#mccce750f17" y="237.430588"></use>
      </g>
     </g>
     <g id="text_19">
      <!-- 0.76 -->
      <g transform="translate(135.646147 252.029026)scale(0.1 -0.1)">
       <use xlink:href="#DejaVuSans-48"></use>
       <use x="63.623047" xlink:href="#DejaVuSans-46"></use>
       <use x="95.410156" xlink:href="#DejaVuSans-55"></use>
       <use x="159.033203" xlink:href="#DejaVuSans-54"></use>
      </g>
     </g>
    </g>
    <g id="xtick_14">
     <g id="line2d_22">
      <g>
       <use style="stroke:#000000;stroke-width:0.8;" x="185.593345" xlink:href="#mccce750f17" y="237.430588"></use>
      </g>
     </g>
     <g id="text_20">
      <!-- 0.78 -->
      <g transform="translate(174.460532 252.029026)scale(0.1 -0.1)">
       <use xlink:href="#DejaVuSans-48"></use>
       <use x="63.623047" xlink:href="#DejaVuSans-46"></use>
       <use x="95.410156" xlink:href="#DejaVuSans-55"></use>
       <use x="159.033203" xlink:href="#DejaVuSans-56"></use>
      </g>
     </g>
    </g>
    <g id="xtick_15">
     <g id="line2d_23">
      <g>
       <use style="stroke:#000000;stroke-width:0.8;" x="224.407731" xlink:href="#mccce750f17" y="237.430588"></use>
      </g>
     </g>
     <g id="text_21">
      <!-- 0.80 -->
      <g transform="translate(213.274918 252.029026)scale(0.1 -0.1)">
       <use xlink:href="#DejaVuSans-48"></use>
       <use x="63.623047" xlink:href="#DejaVuSans-46"></use>
       <use x="95.410156" xlink:href="#DejaVuSans-56"></use>
       <use x="159.033203" xlink:href="#DejaVuSans-48"></use>
      </g>
     </g>
    </g>
   </g>
   <g id="matplotlib.axis_6">
    <g id="ytick_5">
     <g id="line2d_24">
      <g>
       <use style="stroke:#000000;stroke-width:0.8;" x="40.88125" xlink:href="#m4ade5c4b6b" y="237.430588"></use>
      </g>
     </g>
     <g id="text_22">
      <!-- 0 -->
      <g transform="translate(27.51875 241.229807)scale(0.1 -0.1)">
       <use xlink:href="#DejaVuSans-48"></use>
      </g>
     </g>
    </g>
    <g id="ytick_6">
     <g id="line2d_25">
      <g>
       <use style="stroke:#000000;stroke-width:0.8;" x="40.88125" xlink:href="#m4ade5c4b6b" y="206.109329"></use>
      </g>
     </g>
     <g id="text_23">
      <!-- 20 -->
      <g transform="translate(21.15625 209.908548)scale(0.1 -0.1)">
       <use xlink:href="#DejaVuSans-50"></use>
       <use x="63.623047" xlink:href="#DejaVuSans-48"></use>
      </g>
     </g>
    </g>
    <g id="text_24">
     <!-- W_3 -->
     <defs>
      <path d="M 40.578125 39.3125 
Q 47.65625 37.796875 51.625 33 
Q 55.609375 28.21875 55.609375 21.1875 
Q 55.609375 10.40625 48.1875 4.484375 
Q 40.765625 -1.421875 27.09375 -1.421875 
Q 22.515625 -1.421875 17.65625 -0.515625 
Q 12.796875 0.390625 7.625 2.203125 
L 7.625 11.71875 
Q 11.71875 9.328125 16.59375 8.109375 
Q 21.484375 6.890625 26.8125 6.890625 
Q 36.078125 6.890625 40.9375 10.546875 
Q 45.796875 14.203125 45.796875 21.1875 
Q 45.796875 27.640625 41.28125 31.265625 
Q 36.765625 34.90625 28.71875 34.90625 
L 20.21875 34.90625 
L 20.21875 43.015625 
L 29.109375 43.015625 
Q 36.375 43.015625 40.234375 45.921875 
Q 44.09375 48.828125 44.09375 54.296875 
Q 44.09375 59.90625 40.109375 62.90625 
Q 36.140625 65.921875 28.71875 65.921875 
Q 24.65625 65.921875 20.015625 65.03125 
Q 15.375 64.15625 9.8125 62.3125 
L 9.8125 71.09375 
Q 15.4375 72.65625 20.34375 73.4375 
Q 25.25 74.21875 29.59375 74.21875 
Q 40.828125 74.21875 47.359375 69.109375 
Q 53.90625 64.015625 53.90625 55.328125 
Q 53.90625 49.265625 50.4375 45.09375 
Q 46.96875 40.921875 40.578125 39.3125 
z
" id="DejaVuSans-51"></path>
     </defs>
     <g transform="translate(14.798438 219.276765)rotate(-90)scale(0.1 -0.1)">
      <use xlink:href="#DejaVuSans-87"></use>
      <use x="98.876953" xlink:href="#DejaVuSans-95"></use>
      <use x="148.876953" xlink:href="#DejaVuSans-51"></use>
     </g>
    </g>
   </g>
   <g id="line2d_26">
    <path clip-path="url(#p2fbd3ce93d)" d="M 49.758523 237.429992 
L 51.551911 237.428371 
L 53.3453 237.423974 
L 55.138688 237.414685 
L 56.932076 237.399428 
L 58.725465 237.379623 
L 60.518853 237.357647 
L 62.312242 237.332212 
L 64.10563 237.296245 
L 65.899019 237.241506 
L 67.692407 237.165168 
L 69.485795 237.070761 
L 71.279184 236.96434 
L 73.072572 236.852064 
L 74.865961 236.739211 
L 76.659349 236.626286 
L 78.452738 236.504619 
L 80.246126 236.357543 
L 82.039514 236.165061 
L 83.832903 235.907117 
L 85.626291 235.568201 
L 87.41968 235.142778 
L 89.213068 234.628089 
L 91.006457 233.998553 
L 92.799845 233.190355 
L 94.593233 232.140725 
L 96.386622 230.874356 
L 98.18001 229.543185 
L 99.973399 228.329503 
L 101.766787 227.271751 
L 103.560176 226.206552 
L 105.353564 224.920805 
L 107.146952 223.350775 
L 108.940341 221.596556 
L 110.733729 219.75444 
L 112.527118 217.786336 
L 114.320506 215.568665 
L 116.113895 213.038592 
L 117.907283 210.266734 
L 119.700671 207.39229 
L 121.49406 204.517583 
L 123.287448 201.684576 
L 125.080837 198.915848 
L 126.874225 196.226815 
L 128.667614 193.620288 
L 130.461002 191.121565 
L 132.25439 188.803868 
L 134.047779 186.747025 
L 135.841167 185.007358 
L 137.634556 183.664695 
L 139.427944 182.844655 
L 141.221333 182.613782 
L 143.014721 182.860045 
L 144.80811 183.348445 
L 146.601498 183.908425 
L 148.394886 184.522431 
L 150.188275 185.257195 
L 151.981663 186.197271 
L 153.775052 187.438407 
L 155.56844 189.045459 
L 157.361829 190.985502 
L 159.155217 193.155921 
L 160.948605 195.497343 
L 162.741994 198.044242 
L 164.535382 200.849981 
L 166.328771 203.888178 
L 168.122159 207.046237 
L 169.915548 210.192498 
L 171.708936 213.218956 
L 173.502324 216.034815 
L 175.295713 218.567882 
L 177.089101 220.795467 
L 178.88249 222.760968 
L 180.675878 224.546037 
L 182.469267 226.223128 
L 184.262655 227.830649 
L 186.056043 229.381693 
L 187.849432 230.875982 
L 189.64282 232.285994 
L 191.436209 233.539292 
L 193.229597 234.542958 
L 195.022986 235.245018 
L 196.816374 235.6755 
L 198.609762 235.930457 
L 200.403151 236.117687 
L 202.196539 236.306315 
L 203.989928 236.509149 
L 205.783316 236.700525 
L 207.576705 236.850142 
L 209.370093 236.94887 
L 211.163481 237.013823 
L 212.95687 237.073623 
L 214.750258 237.146686 
L 216.543647 237.230459 
L 218.337035 237.308861 
L 220.130424 237.36766 
L 221.923812 237.403211 
L 223.7172 237.420646 
L 225.510589 237.427597 
L 227.303977 237.429848 
" style="fill:none;stroke:#1f77b4;stroke-linecap:square;stroke-width:1.5;"></path>
   </g>
   <g id="line2d_27">
    <path clip-path="url(#p2fbd3ce93d)" d="M 155.863199 237.430588 
L 155.863199 179.872941 
" style="fill:none;stroke:#1f77b4;stroke-dasharray:5.55,2.4;stroke-dashoffset:0;stroke-width:1.5;"></path>
   </g>
   <g id="patch_13">
    <path d="M 40.88125 237.430588 
L 40.88125 179.872941 
" style="fill:none;stroke:#000000;stroke-linecap:square;stroke-linejoin:miter;stroke-width:0.8;"></path>
   </g>
   <g id="patch_14">
    <path d="M 236.18125 237.430588 
L 236.18125 179.872941 
" style="fill:none;stroke:#000000;stroke-linecap:square;stroke-linejoin:miter;stroke-width:0.8;"></path>
   </g>
   <g id="patch_15">
    <path d="M 40.88125 237.430588 
L 236.18125 237.430588 
" style="fill:none;stroke:#000000;stroke-linecap:square;stroke-linejoin:miter;stroke-width:0.8;"></path>
   </g>
   <g id="patch_16">
    <path d="M 40.88125 179.872941 
L 236.18125 179.872941 
" style="fill:none;stroke:#000000;stroke-linecap:square;stroke-linejoin:miter;stroke-width:0.8;"></path>
   </g>
  </g>
  <g id="axes_4">
   <g id="patch_17">
    <path d="M 40.88125 323.767059 
L 236.18125 323.767059 
L 236.18125 266.209412 
L 40.88125 266.209412 
z
" style="fill:#ffffff;"></path>
   </g>
   <g id="PolyCollection_4">
    <path clip-path="url(#p6051468265)" d="M 49.758523 323.766041 
L 49.758523 323.767059 
L 51.551911 323.767059 
L 53.3453 323.767059 
L 55.138688 323.767059 
L 56.932076 323.767059 
L 58.725465 323.767059 
L 60.518853 323.767059 
L 62.312242 323.767059 
L 64.10563 323.767059 
L 65.899019 323.767059 
L 67.692407 323.767059 
L 69.485795 323.767059 
L 71.279184 323.767059 
L 73.072572 323.767059 
L 74.865961 323.767059 
L 76.659349 323.767059 
L 78.452738 323.767059 
L 80.246126 323.767059 
L 82.039514 323.767059 
L 83.832903 323.767059 
L 85.626291 323.767059 
L 87.41968 323.767059 
L 89.213068 323.767059 
L 91.006457 323.767059 
L 92.799845 323.767059 
L 94.593233 323.767059 
L 96.386622 323.767059 
L 98.18001 323.767059 
L 99.973399 323.767059 
L 101.766787 323.767059 
L 103.560176 323.767059 
L 105.353564 323.767059 
L 107.146952 323.767059 
L 108.940341 323.767059 
L 110.733729 323.767059 
L 112.527118 323.767059 
L 114.320506 323.767059 
L 116.113895 323.767059 
L 117.907283 323.767059 
L 119.700671 323.767059 
L 121.49406 323.767059 
L 123.287448 323.767059 
L 125.080837 323.767059 
L 126.874225 323.767059 
L 128.667614 323.767059 
L 130.461002 323.767059 
L 132.25439 323.767059 
L 134.047779 323.767059 
L 135.841167 323.767059 
L 137.634556 323.767059 
L 139.427944 323.767059 
L 141.221333 323.767059 
L 143.014721 323.767059 
L 144.80811 323.767059 
L 146.601498 323.767059 
L 148.394886 323.767059 
L 150.188275 323.767059 
L 151.981663 323.767059 
L 153.775052 323.767059 
L 155.56844 323.767059 
L 157.361829 323.767059 
L 159.155217 323.767059 
L 160.948605 323.767059 
L 162.741994 323.767059 
L 164.535382 323.767059 
L 166.328771 323.767059 
L 168.122159 323.767059 
L 169.915548 323.767059 
L 171.708936 323.767059 
L 173.502324 323.767059 
L 175.295713 323.767059 
L 177.089101 323.767059 
L 178.88249 323.767059 
L 180.675878 323.767059 
L 182.469267 323.767059 
L 184.262655 323.767059 
L 186.056043 323.767059 
L 187.849432 323.767059 
L 189.64282 323.767059 
L 191.436209 323.767059 
L 193.229597 323.767059 
L 195.022986 323.767059 
L 196.816374 323.767059 
L 198.609762 323.767059 
L 200.403151 323.767059 
L 202.196539 323.767059 
L 203.989928 323.767059 
L 205.783316 323.767059 
L 207.576705 323.767059 
L 209.370093 323.767059 
L 211.163481 323.767059 
L 212.95687 323.767059 
L 214.750258 323.767059 
L 216.543647 323.767059 
L 218.337035 323.767059 
L 220.130424 323.767059 
L 221.923812 323.767059 
L 223.7172 323.767059 
L 225.510589 323.767059 
L 227.303977 323.767059 
L 227.303977 323.766483 
L 227.303977 323.766483 
L 225.510589 323.764875 
L 223.7172 323.760364 
L 221.923812 323.750265 
L 220.130424 323.731923 
L 218.337035 323.703922 
L 216.543647 323.666088 
L 214.750258 323.619098 
L 212.95687 323.56651 
L 211.163481 323.516878 
L 209.370093 323.477309 
L 207.576705 323.438119 
L 205.783316 323.365751 
L 203.989928 323.220129 
L 202.196539 322.985021 
L 200.403151 322.677882 
L 198.609762 322.322247 
L 196.816374 321.910132 
L 195.022986 321.401143 
L 193.229597 320.763288 
L 191.436209 320.006536 
L 189.64282 319.175105 
L 187.849432 318.322797 
L 186.056043 317.495952 
L 184.262655 316.705528 
L 182.469267 315.884219 
L 180.675878 314.873411 
L 178.88249 313.478571 
L 177.089101 311.584158 
L 175.295713 309.266158 
L 173.502324 306.7911 
L 171.708936 304.437613 
L 169.915548 302.264444 
L 168.122159 300.063461 
L 166.328771 297.569318 
L 164.535382 294.724281 
L 162.741994 291.745997 
L 160.948605 288.94477 
L 159.155217 286.467907 
L 157.361829 284.21628 
L 155.56844 281.991259 
L 153.775052 279.672805 
L 151.981663 277.259788 
L 150.188275 274.842283 
L 148.394886 272.599798 
L 146.601498 270.767066 
L 144.80811 269.529674 
L 143.014721 268.950252 
L 141.221333 269.012927 
L 139.427944 269.7194 
L 137.634556 271.082405 
L 135.841167 272.986101 
L 134.047779 275.106265 
L 132.25439 277.069709 
L 130.461002 278.724551 
L 128.667614 280.223809 
L 126.874225 281.853457 
L 125.080837 283.815958 
L 123.287448 286.151305 
L 121.49406 288.782335 
L 119.700671 291.590283 
L 117.907283 294.461772 
L 116.113895 297.288542 
L 114.320506 299.944589 
L 112.527118 302.302261 
L 110.733729 304.307795 
L 108.940341 306.048362 
L 107.146952 307.720691 
L 105.353564 309.493666 
L 103.560176 311.375152 
L 101.766787 313.212006 
L 99.973399 314.818135 
L 98.18001 316.100248 
L 96.386622 317.089886 
L 94.593233 317.897879 
L 92.799845 318.640532 
L 91.006457 319.377933 
L 89.213068 320.102551 
L 87.41968 320.77875 
L 85.626291 321.381466 
L 83.832903 321.897592 
L 82.039514 322.312269 
L 80.246126 322.614114 
L 78.452738 322.815324 
L 76.659349 322.95753 
L 74.865961 323.089241 
L 73.072572 323.232679 
L 71.279184 323.371565 
L 69.485795 323.471573 
L 67.692407 323.513248 
L 65.899019 323.50909 
L 64.10563 323.495022 
L 62.312242 323.505867 
L 60.518853 323.553062 
L 58.725465 323.621361 
L 56.932076 323.685569 
L 55.138688 323.729839 
L 53.3453 323.753228 
L 51.551911 323.762889 
L 49.758523 323.766041 
z
" style="fill:#1f77b4;fill-opacity:0.25;"></path>
   </g>
   <g id="matplotlib.axis_7">
    <g id="xtick_16">
     <g id="line2d_28">
      <g>
       <use style="stroke:#000000;stroke-width:0.8;" x="65.536598" xlink:href="#mccce750f17" y="323.767059"></use>
      </g>
     </g>
     <g id="text_25">
      <!-- −0.12 -->
      <g transform="translate(50.213942 338.365496)scale(0.1 -0.1)">
       <use xlink:href="#DejaVuSans-8722"></use>
       <use x="83.789062" xlink:href="#DejaVuSans-48"></use>
       <use x="147.412109" xlink:href="#DejaVuSans-46"></use>
       <use x="179.199219" xlink:href="#DejaVuSans-49"></use>
       <use x="242.822266" xlink:href="#DejaVuSans-50"></use>
      </g>
     </g>
    </g>
    <g id="xtick_17">
     <g id="line2d_29">
      <g>
       <use style="stroke:#000000;stroke-width:0.8;" x="105.080436" xlink:href="#mccce750f17" y="323.767059"></use>
      </g>
     </g>
     <g id="text_26">
      <!-- −0.10 -->
      <g transform="translate(89.75778 338.365496)scale(0.1 -0.1)">
       <use xlink:href="#DejaVuSans-8722"></use>
       <use x="83.789062" xlink:href="#DejaVuSans-48"></use>
       <use x="147.412109" xlink:href="#DejaVuSans-46"></use>
       <use x="179.199219" xlink:href="#DejaVuSans-49"></use>
       <use x="242.822266" xlink:href="#DejaVuSans-48"></use>
      </g>
     </g>
    </g>
    <g id="xtick_18">
     <g id="line2d_30">
      <g>
       <use style="stroke:#000000;stroke-width:0.8;" x="144.624274" xlink:href="#mccce750f17" y="323.767059"></use>
      </g>
     </g>
     <g id="text_27">
      <!-- −0.08 -->
      <g transform="translate(129.301617 338.365496)scale(0.1 -0.1)">
       <use xlink:href="#DejaVuSans-8722"></use>
       <use x="83.789062" xlink:href="#DejaVuSans-48"></use>
       <use x="147.412109" xlink:href="#DejaVuSans-46"></use>
       <use x="179.199219" xlink:href="#DejaVuSans-48"></use>
       <use x="242.822266" xlink:href="#DejaVuSans-56"></use>
      </g>
     </g>
    </g>
    <g id="xtick_19">
     <g id="line2d_31">
      <g>
       <use style="stroke:#000000;stroke-width:0.8;" x="184.168111" xlink:href="#mccce750f17" y="323.767059"></use>
      </g>
     </g>
     <g id="text_28">
      <!-- −0.06 -->
      <g transform="translate(168.845455 338.365496)scale(0.1 -0.1)">
       <use xlink:href="#DejaVuSans-8722"></use>
       <use x="83.789062" xlink:href="#DejaVuSans-48"></use>
       <use x="147.412109" xlink:href="#DejaVuSans-46"></use>
       <use x="179.199219" xlink:href="#DejaVuSans-48"></use>
       <use x="242.822266" xlink:href="#DejaVuSans-54"></use>
      </g>
     </g>
    </g>
    <g id="xtick_20">
     <g id="line2d_32">
      <g>
       <use style="stroke:#000000;stroke-width:0.8;" x="223.711949" xlink:href="#mccce750f17" y="323.767059"></use>
      </g>
     </g>
     <g id="text_29">
      <!-- −0.04 -->
      <g transform="translate(208.389293 338.365496)scale(0.1 -0.1)">
       <use xlink:href="#DejaVuSans-8722"></use>
       <use x="83.789062" xlink:href="#DejaVuSans-48"></use>
       <use x="147.412109" xlink:href="#DejaVuSans-46"></use>
       <use x="179.199219" xlink:href="#DejaVuSans-48"></use>
       <use x="242.822266" xlink:href="#DejaVuSans-52"></use>
      </g>
     </g>
    </g>
   </g>
   <g id="matplotlib.axis_8">
    <g id="ytick_7">
     <g id="line2d_33">
      <g>
       <use style="stroke:#000000;stroke-width:0.8;" x="40.88125" xlink:href="#m4ade5c4b6b" y="323.767059"></use>
      </g>
     </g>
     <g id="text_30">
      <!-- 0 -->
      <g transform="translate(27.51875 327.566278)scale(0.1 -0.1)">
       <use xlink:href="#DejaVuSans-48"></use>
      </g>
     </g>
    </g>
    <g id="ytick_8">
     <g id="line2d_34">
      <g>
       <use style="stroke:#000000;stroke-width:0.8;" x="40.88125" xlink:href="#m4ade5c4b6b" y="294.731852"></use>
      </g>
     </g>
     <g id="text_31">
      <!-- 20 -->
      <g transform="translate(21.15625 298.531071)scale(0.1 -0.1)">
       <use xlink:href="#DejaVuSans-50"></use>
       <use x="63.623047" xlink:href="#DejaVuSans-48"></use>
      </g>
     </g>
    </g>
    <g id="text_32">
     <!-- W_4 -->
     <g transform="translate(14.798438 305.613235)rotate(-90)scale(0.1 -0.1)">
      <use xlink:href="#DejaVuSans-87"></use>
      <use x="98.876953" xlink:href="#DejaVuSans-95"></use>
      <use x="148.876953" xlink:href="#DejaVuSans-52"></use>
     </g>
    </g>
   </g>
   <g id="line2d_35">
    <path clip-path="url(#p6051468265)" d="M 49.758523 323.766041 
L 51.551911 323.762889 
L 53.3453 323.753228 
L 55.138688 323.729839 
L 56.932076 323.685569 
L 58.725465 323.621361 
L 60.518853 323.553062 
L 62.312242 323.505867 
L 64.10563 323.495022 
L 65.899019 323.50909 
L 67.692407 323.513248 
L 69.485795 323.471573 
L 71.279184 323.371565 
L 73.072572 323.232679 
L 74.865961 323.089241 
L 76.659349 322.95753 
L 78.452738 322.815324 
L 80.246126 322.614114 
L 82.039514 322.312269 
L 83.832903 321.897592 
L 85.626291 321.381466 
L 87.41968 320.77875 
L 89.213068 320.102551 
L 91.006457 319.377933 
L 92.799845 318.640532 
L 94.593233 317.897879 
L 96.386622 317.089886 
L 98.18001 316.100248 
L 99.973399 314.818135 
L 101.766787 313.212006 
L 103.560176 311.375152 
L 105.353564 309.493666 
L 107.146952 307.720691 
L 108.940341 306.048362 
L 110.733729 304.307795 
L 112.527118 302.302261 
L 114.320506 299.944589 
L 116.113895 297.288542 
L 117.907283 294.461772 
L 119.700671 291.590283 
L 121.49406 288.782335 
L 123.287448 286.151305 
L 125.080837 283.815958 
L 126.874225 281.853457 
L 128.667614 280.223809 
L 130.461002 278.724551 
L 132.25439 277.069709 
L 134.047779 275.106265 
L 135.841167 272.986101 
L 137.634556 271.082405 
L 139.427944 269.7194 
L 141.221333 269.012927 
L 143.014721 268.950252 
L 144.80811 269.529674 
L 146.601498 270.767066 
L 148.394886 272.599798 
L 150.188275 274.842283 
L 151.981663 277.259788 
L 153.775052 279.672805 
L 155.56844 281.991259 
L 157.361829 284.21628 
L 159.155217 286.467907 
L 160.948605 288.94477 
L 162.741994 291.745997 
L 164.535382 294.724281 
L 166.328771 297.569318 
L 168.122159 300.063461 
L 169.915548 302.264444 
L 171.708936 304.437613 
L 173.502324 306.7911 
L 175.295713 309.266158 
L 177.089101 311.584158 
L 178.88249 313.478571 
L 180.675878 314.873411 
L 182.469267 315.884219 
L 184.262655 316.705528 
L 186.056043 317.495952 
L 187.849432 318.322797 
L 189.64282 319.175105 
L 191.436209 320.006536 
L 193.229597 320.763288 
L 195.022986 321.401143 
L 196.816374 321.910132 
L 198.609762 322.322247 
L 200.403151 322.677882 
L 202.196539 322.985021 
L 203.989928 323.220129 
L 205.783316 323.365751 
L 207.576705 323.438119 
L 209.370093 323.477309 
L 211.163481 323.516878 
L 212.95687 323.56651 
L 214.750258 323.619098 
L 216.543647 323.666088 
L 218.337035 323.703922 
L 220.130424 323.731923 
L 221.923812 323.750265 
L 223.7172 323.760364 
L 225.510589 323.764875 
L 227.303977 323.766483 
" style="fill:none;stroke:#1f77b4;stroke-linecap:square;stroke-width:1.5;"></path>
   </g>
   <g id="line2d_36">
    <path clip-path="url(#p6051468265)" d="M 156.294886 323.767059 
L 156.294886 266.209412 
" style="fill:none;stroke:#1f77b4;stroke-dasharray:5.55,2.4;stroke-dashoffset:0;stroke-width:1.5;"></path>
   </g>
   <g id="patch_18">
    <path d="M 40.88125 323.767059 
L 40.88125 266.209412 
" style="fill:none;stroke:#000000;stroke-linecap:square;stroke-linejoin:miter;stroke-width:0.8;"></path>
   </g>
   <g id="patch_19">
    <path d="M 236.18125 323.767059 
L 236.18125 266.209412 
" style="fill:none;stroke:#000000;stroke-linecap:square;stroke-linejoin:miter;stroke-width:0.8;"></path>
   </g>
   <g id="patch_20">
    <path d="M 40.88125 323.767059 
L 236.18125 323.767059 
" style="fill:none;stroke:#000000;stroke-linecap:square;stroke-linejoin:miter;stroke-width:0.8;"></path>
   </g>
   <g id="patch_21">
    <path d="M 40.88125 266.209412 
L 236.18125 266.209412 
" style="fill:none;stroke:#000000;stroke-linecap:square;stroke-linejoin:miter;stroke-width:0.8;"></path>
   </g>
  </g>
  <g id="axes_5">
   <g id="patch_22">
    <path d="M 40.88125 410.103529 
L 236.18125 410.103529 
L 236.18125 352.545882 
L 40.88125 352.545882 
z
" style="fill:#ffffff;"></path>
   </g>
   <g id="PolyCollection_5">
    <path clip-path="url(#p44a094f2bb)" d="M 49.758523 410.102942 
L 49.758523 410.103529 
L 51.551911 410.103529 
L 53.3453 410.103529 
L 55.138688 410.103529 
L 56.932076 410.103529 
L 58.725465 410.103529 
L 60.518853 410.103529 
L 62.312242 410.103529 
L 64.10563 410.103529 
L 65.899019 410.103529 
L 67.692407 410.103529 
L 69.485795 410.103529 
L 71.279184 410.103529 
L 73.072572 410.103529 
L 74.865961 410.103529 
L 76.659349 410.103529 
L 78.452738 410.103529 
L 80.246126 410.103529 
L 82.039514 410.103529 
L 83.832903 410.103529 
L 85.626291 410.103529 
L 87.41968 410.103529 
L 89.213068 410.103529 
L 91.006457 410.103529 
L 92.799845 410.103529 
L 94.593233 410.103529 
L 96.386622 410.103529 
L 98.18001 410.103529 
L 99.973399 410.103529 
L 101.766787 410.103529 
L 103.560176 410.103529 
L 105.353564 410.103529 
L 107.146952 410.103529 
L 108.940341 410.103529 
L 110.733729 410.103529 
L 112.527118 410.103529 
L 114.320506 410.103529 
L 116.113895 410.103529 
L 117.907283 410.103529 
L 119.700671 410.103529 
L 121.49406 410.103529 
L 123.287448 410.103529 
L 125.080837 410.103529 
L 126.874225 410.103529 
L 128.667614 410.103529 
L 130.461002 410.103529 
L 132.25439 410.103529 
L 134.047779 410.103529 
L 135.841167 410.103529 
L 137.634556 410.103529 
L 139.427944 410.103529 
L 141.221333 410.103529 
L 143.014721 410.103529 
L 144.80811 410.103529 
L 146.601498 410.103529 
L 148.394886 410.103529 
L 150.188275 410.103529 
L 151.981663 410.103529 
L 153.775052 410.103529 
L 155.56844 410.103529 
L 157.361829 410.103529 
L 159.155217 410.103529 
L 160.948605 410.103529 
L 162.741994 410.103529 
L 164.535382 410.103529 
L 166.328771 410.103529 
L 168.122159 410.103529 
L 169.915548 410.103529 
L 171.708936 410.103529 
L 173.502324 410.103529 
L 175.295713 410.103529 
L 177.089101 410.103529 
L 178.88249 410.103529 
L 180.675878 410.103529 
L 182.469267 410.103529 
L 184.262655 410.103529 
L 186.056043 410.103529 
L 187.849432 410.103529 
L 189.64282 410.103529 
L 191.436209 410.103529 
L 193.229597 410.103529 
L 195.022986 410.103529 
L 196.816374 410.103529 
L 198.609762 410.103529 
L 200.403151 410.103529 
L 202.196539 410.103529 
L 203.989928 410.103529 
L 205.783316 410.103529 
L 207.576705 410.103529 
L 209.370093 410.103529 
L 211.163481 410.103529 
L 212.95687 410.103529 
L 214.750258 410.103529 
L 216.543647 410.103529 
L 218.337035 410.103529 
L 220.130424 410.103529 
L 221.923812 410.103529 
L 223.7172 410.103529 
L 225.510589 410.103529 
L 227.303977 410.103529 
L 227.303977 410.102945 
L 227.303977 410.102945 
L 225.510589 410.10122 
L 223.7172 410.096394 
L 221.923812 410.086188 
L 220.130424 410.06999 
L 218.337035 410.050446 
L 216.543647 410.030576 
L 214.750258 410.007862 
L 212.95687 409.974337 
L 211.163481 409.925974 
L 209.370093 409.869814 
L 207.576705 409.817196 
L 205.783316 409.769558 
L 203.989928 409.713286 
L 202.196539 409.627014 
L 200.403151 409.490745 
L 198.609762 409.294202 
L 196.816374 409.046891 
L 195.022986 408.772614 
L 193.229597 408.475125 
L 191.436209 408.109768 
L 189.64282 407.606491 
L 187.849432 406.925821 
L 186.056043 406.083333 
L 184.262655 405.122246 
L 182.469267 404.084604 
L 180.675878 403.014082 
L 178.88249 401.93957 
L 177.089101 400.809383 
L 175.295713 399.473921 
L 173.502324 397.789347 
L 171.708936 395.720925 
L 169.915548 393.320841 
L 168.122159 390.671945 
L 166.328771 387.914361 
L 164.535382 385.259277 
L 162.741994 382.862923 
L 160.948605 380.67034 
L 159.155217 378.439339 
L 157.361829 375.934147 
L 155.56844 373.074216 
L 153.775052 369.936456 
L 151.981663 366.716692 
L 150.188275 363.711412 
L 148.394886 361.222284 
L 146.601498 359.36687 
L 144.80811 357.991402 
L 143.014721 356.842763 
L 141.221333 355.864785 
L 139.427944 355.286723 
L 137.634556 355.354844 
L 135.841167 356.014259 
L 134.047779 356.973826 
L 132.25439 358.076797 
L 130.461002 359.455736 
L 128.667614 361.264412 
L 126.874225 363.388833 
L 125.080837 365.550794 
L 123.287448 367.636755 
L 121.49406 369.785387 
L 119.700671 372.160678 
L 117.907283 374.765957 
L 116.113895 377.509006 
L 114.320506 380.345847 
L 112.527118 383.285813 
L 110.733729 386.290709 
L 108.940341 389.233196 
L 107.146952 391.974599 
L 105.353564 394.474011 
L 103.560176 396.793447 
L 101.766787 398.975646 
L 99.973399 400.952109 
L 98.18001 402.61274 
L 96.386622 403.936561 
L 94.593233 405.009467 
L 92.799845 405.928886 
L 91.006457 406.723871 
L 89.213068 407.363542 
L 87.41968 407.822603 
L 85.626291 408.131808 
L 83.832903 408.365651 
L 82.039514 408.585183 
L 80.246126 408.802311 
L 78.452738 408.999398 
L 76.659349 409.166195 
L 74.865961 409.307857 
L 73.072572 409.431321 
L 71.279184 409.539499 
L 69.485795 409.635775 
L 67.692407 409.725614 
L 65.899019 409.81193 
L 64.10563 409.890951 
L 62.312242 409.95571 
L 60.518853 410.004006 
L 58.725465 410.039681 
L 56.932076 410.066558 
L 55.138688 410.085331 
L 53.3453 410.096227 
L 51.551911 410.101195 
L 49.758523 410.102942 
z
" style="fill:#1f77b4;fill-opacity:0.25;"></path>
   </g>
   <g id="matplotlib.axis_9">
    <g id="xtick_21">
     <g id="line2d_37">
      <g>
       <use style="stroke:#000000;stroke-width:0.8;" x="46.283257" xlink:href="#mccce750f17" y="410.103529"></use>
      </g>
     </g>
     <g id="text_33">
      <!-- 0.36 -->
      <g transform="translate(35.150444 424.701967)scale(0.1 -0.1)">
       <use xlink:href="#DejaVuSans-48"></use>
       <use x="63.623047" xlink:href="#DejaVuSans-46"></use>
       <use x="95.410156" xlink:href="#DejaVuSans-51"></use>
       <use x="159.033203" xlink:href="#DejaVuSans-54"></use>
      </g>
     </g>
    </g>
    <g id="xtick_22">
     <g id="line2d_38">
      <g>
       <use style="stroke:#000000;stroke-width:0.8;" x="83.075625" xlink:href="#mccce750f17" y="410.103529"></use>
      </g>
     </g>
     <g id="text_34">
      <!-- 0.38 -->
      <g transform="translate(71.942812 424.701967)scale(0.1 -0.1)">
       <use xlink:href="#DejaVuSans-48"></use>
       <use x="63.623047" xlink:href="#DejaVuSans-46"></use>
       <use x="95.410156" xlink:href="#DejaVuSans-51"></use>
       <use x="159.033203" xlink:href="#DejaVuSans-56"></use>
      </g>
     </g>
    </g>
    <g id="xtick_23">
     <g id="line2d_39">
      <g>
       <use style="stroke:#000000;stroke-width:0.8;" x="119.867993" xlink:href="#mccce750f17" y="410.103529"></use>
      </g>
     </g>
     <g id="text_35">
      <!-- 0.40 -->
      <g transform="translate(108.73518 424.701967)scale(0.1 -0.1)">
       <use xlink:href="#DejaVuSans-48"></use>
       <use x="63.623047" xlink:href="#DejaVuSans-46"></use>
       <use x="95.410156" xlink:href="#DejaVuSans-52"></use>
       <use x="159.033203" xlink:href="#DejaVuSans-48"></use>
      </g>
     </g>
    </g>
    <g id="xtick_24">
     <g id="line2d_40">
      <g>
       <use style="stroke:#000000;stroke-width:0.8;" x="156.660361" xlink:href="#mccce750f17" y="410.103529"></use>
      </g>
     </g>
     <g id="text_36">
      <!-- 0.42 -->
      <g transform="translate(145.527549 424.701967)scale(0.1 -0.1)">
       <use xlink:href="#DejaVuSans-48"></use>
       <use x="63.623047" xlink:href="#DejaVuSans-46"></use>
       <use x="95.410156" xlink:href="#DejaVuSans-52"></use>
       <use x="159.033203" xlink:href="#DejaVuSans-50"></use>
      </g>
     </g>
    </g>
    <g id="xtick_25">
     <g id="line2d_41">
      <g>
       <use style="stroke:#000000;stroke-width:0.8;" x="193.452729" xlink:href="#mccce750f17" y="410.103529"></use>
      </g>
     </g>
     <g id="text_37">
      <!-- 0.44 -->
      <g transform="translate(182.319917 424.701967)scale(0.1 -0.1)">
       <use xlink:href="#DejaVuSans-48"></use>
       <use x="63.623047" xlink:href="#DejaVuSans-46"></use>
       <use x="95.410156" xlink:href="#DejaVuSans-52"></use>
       <use x="159.033203" xlink:href="#DejaVuSans-52"></use>
      </g>
     </g>
    </g>
    <g id="xtick_26">
     <g id="line2d_42">
      <g>
       <use style="stroke:#000000;stroke-width:0.8;" x="230.245097" xlink:href="#mccce750f17" y="410.103529"></use>
      </g>
     </g>
     <g id="text_38">
      <!-- 0.46 -->
      <g transform="translate(219.112285 424.701967)scale(0.1 -0.1)">
       <use xlink:href="#DejaVuSans-48"></use>
       <use x="63.623047" xlink:href="#DejaVuSans-46"></use>
       <use x="95.410156" xlink:href="#DejaVuSans-52"></use>
       <use x="159.033203" xlink:href="#DejaVuSans-54"></use>
      </g>
     </g>
    </g>
   </g>
   <g id="matplotlib.axis_10">
    <g id="ytick_9">
     <g id="line2d_43">
      <g>
       <use style="stroke:#000000;stroke-width:0.8;" x="40.88125" xlink:href="#m4ade5c4b6b" y="410.103529"></use>
      </g>
     </g>
     <g id="text_39">
      <!-- 0 -->
      <g transform="translate(27.51875 413.902748)scale(0.1 -0.1)">
       <use xlink:href="#DejaVuSans-48"></use>
      </g>
     </g>
    </g>
    <g id="ytick_10">
     <g id="line2d_44">
      <g>
       <use style="stroke:#000000;stroke-width:0.8;" x="40.88125" xlink:href="#m4ade5c4b6b" y="379.204854"></use>
      </g>
     </g>
     <g id="text_40">
      <!-- 20 -->
      <g transform="translate(21.15625 383.004073)scale(0.1 -0.1)">
       <use xlink:href="#DejaVuSans-50"></use>
       <use x="63.623047" xlink:href="#DejaVuSans-48"></use>
      </g>
     </g>
    </g>
    <g id="text_41">
     <!-- b -->
     <defs>
      <path d="M 48.6875 27.296875 
Q 48.6875 37.203125 44.609375 42.84375 
Q 40.53125 48.484375 33.40625 48.484375 
Q 26.265625 48.484375 22.1875 42.84375 
Q 18.109375 37.203125 18.109375 27.296875 
Q 18.109375 17.390625 22.1875 11.75 
Q 26.265625 6.109375 33.40625 6.109375 
Q 40.53125 6.109375 44.609375 11.75 
Q 48.6875 17.390625 48.6875 27.296875 
z
M 18.109375 46.390625 
Q 20.953125 51.265625 25.265625 53.625 
Q 29.59375 56 35.59375 56 
Q 45.5625 56 51.78125 48.09375 
Q 58.015625 40.1875 58.015625 27.296875 
Q 58.015625 14.40625 51.78125 6.484375 
Q 45.5625 -1.421875 35.59375 -1.421875 
Q 29.59375 -1.421875 25.265625 0.953125 
Q 20.953125 3.328125 18.109375 8.203125 
L 18.109375 0 
L 9.078125 0 
L 9.078125 75.984375 
L 18.109375 75.984375 
z
" id="DejaVuSans-98"></path>
     </defs>
     <g transform="translate(15.076563 384.498925)rotate(-90)scale(0.1 -0.1)">
      <use xlink:href="#DejaVuSans-98"></use>
     </g>
    </g>
   </g>
   <g id="line2d_45">
    <path clip-path="url(#p44a094f2bb)" d="M 49.758523 410.102942 
L 51.551911 410.101195 
L 53.3453 410.096227 
L 55.138688 410.085331 
L 56.932076 410.066558 
L 58.725465 410.039681 
L 60.518853 410.004006 
L 62.312242 409.95571 
L 64.10563 409.890951 
L 65.899019 409.81193 
L 67.692407 409.725614 
L 69.485795 409.635775 
L 71.279184 409.539499 
L 73.072572 409.431321 
L 74.865961 409.307857 
L 76.659349 409.166195 
L 78.452738 408.999398 
L 80.246126 408.802311 
L 82.039514 408.585183 
L 83.832903 408.365651 
L 85.626291 408.131808 
L 87.41968 407.822603 
L 89.213068 407.363542 
L 91.006457 406.723871 
L 92.799845 405.928886 
L 94.593233 405.009467 
L 96.386622 403.936561 
L 98.18001 402.61274 
L 99.973399 400.952109 
L 101.766787 398.975646 
L 103.560176 396.793447 
L 105.353564 394.474011 
L 107.146952 391.974599 
L 108.940341 389.233196 
L 110.733729 386.290709 
L 112.527118 383.285813 
L 114.320506 380.345847 
L 116.113895 377.509006 
L 117.907283 374.765957 
L 119.700671 372.160678 
L 121.49406 369.785387 
L 123.287448 367.636755 
L 125.080837 365.550794 
L 126.874225 363.388833 
L 128.667614 361.264412 
L 130.461002 359.455736 
L 132.25439 358.076797 
L 134.047779 356.973826 
L 135.841167 356.014259 
L 137.634556 355.354844 
L 139.427944 355.286723 
L 141.221333 355.864785 
L 143.014721 356.842763 
L 144.80811 357.991402 
L 146.601498 359.36687 
L 148.394886 361.222284 
L 150.188275 363.711412 
L 151.981663 366.716692 
L 153.775052 369.936456 
L 155.56844 373.074216 
L 157.361829 375.934147 
L 159.155217 378.439339 
L 160.948605 380.67034 
L 162.741994 382.862923 
L 164.535382 385.259277 
L 166.328771 387.914361 
L 168.122159 390.671945 
L 169.915548 393.320841 
L 171.708936 395.720925 
L 173.502324 397.789347 
L 175.295713 399.473921 
L 177.089101 400.809383 
L 178.88249 401.93957 
L 180.675878 403.014082 
L 182.469267 404.084604 
L 184.262655 405.122246 
L 186.056043 406.083333 
L 187.849432 406.925821 
L 189.64282 407.606491 
L 191.436209 408.109768 
L 193.229597 408.475125 
L 195.022986 408.772614 
L 196.816374 409.046891 
L 198.609762 409.294202 
L 200.403151 409.490745 
L 202.196539 409.627014 
L 203.989928 409.713286 
L 205.783316 409.769558 
L 207.576705 409.817196 
L 209.370093 409.869814 
L 211.163481 409.925974 
L 212.95687 409.974337 
L 214.750258 410.007862 
L 216.543647 410.030576 
L 218.337035 410.050446 
L 220.130424 410.06999 
L 221.923812 410.086188 
L 223.7172 410.096394 
L 225.510589 410.10122 
L 227.303977 410.102945 
" style="fill:none;stroke:#1f77b4;stroke-linecap:square;stroke-width:1.5;"></path>
   </g>
   <g id="line2d_46">
    <path clip-path="url(#p44a094f2bb)" d="M 176.431019 410.103529 
L 176.431019 352.545882 
" style="fill:none;stroke:#1f77b4;stroke-dasharray:5.55,2.4;stroke-dashoffset:0;stroke-width:1.5;"></path>
   </g>
   <g id="patch_23">
    <path d="M 40.88125 410.103529 
L 40.88125 352.545882 
" style="fill:none;stroke:#000000;stroke-linecap:square;stroke-linejoin:miter;stroke-width:0.8;"></path>
   </g>
   <g id="patch_24">
    <path d="M 236.18125 410.103529 
L 236.18125 352.545882 
" style="fill:none;stroke:#000000;stroke-linecap:square;stroke-linejoin:miter;stroke-width:0.8;"></path>
   </g>
   <g id="patch_25">
    <path d="M 40.88125 410.103529 
L 236.18125 410.103529 
" style="fill:none;stroke:#000000;stroke-linecap:square;stroke-linejoin:miter;stroke-width:0.8;"></path>
   </g>
   <g id="patch_26">
    <path d="M 40.88125 352.545882 
L 236.18125 352.545882 
" style="fill:none;stroke:#000000;stroke-linecap:square;stroke-linejoin:miter;stroke-width:0.8;"></path>
   </g>
  </g>
  <g id="axes_6">
   <g id="patch_27">
    <path d="M 40.88125 496.44 
L 236.18125 496.44 
L 236.18125 438.882353 
L 40.88125 438.882353 
z
" style="fill:#ffffff;"></path>
   </g>
   <g id="PolyCollection_6">
    <path clip-path="url(#pb7bb78d5c0)" d="M 49.758523 496.439401 
L 49.758523 496.44 
L 51.551911 496.44 
L 53.3453 496.44 
L 55.138688 496.44 
L 56.932076 496.44 
L 58.725465 496.44 
L 60.518853 496.44 
L 62.312242 496.44 
L 64.10563 496.44 
L 65.899019 496.44 
L 67.692407 496.44 
L 69.485795 496.44 
L 71.279184 496.44 
L 73.072572 496.44 
L 74.865961 496.44 
L 76.659349 496.44 
L 78.452738 496.44 
L 80.246126 496.44 
L 82.039514 496.44 
L 83.832903 496.44 
L 85.626291 496.44 
L 87.41968 496.44 
L 89.213068 496.44 
L 91.006457 496.44 
L 92.799845 496.44 
L 94.593233 496.44 
L 96.386622 496.44 
L 98.18001 496.44 
L 99.973399 496.44 
L 101.766787 496.44 
L 103.560176 496.44 
L 105.353564 496.44 
L 107.146952 496.44 
L 108.940341 496.44 
L 110.733729 496.44 
L 112.527118 496.44 
L 114.320506 496.44 
L 116.113895 496.44 
L 117.907283 496.44 
L 119.700671 496.44 
L 121.49406 496.44 
L 123.287448 496.44 
L 125.080837 496.44 
L 126.874225 496.44 
L 128.667614 496.44 
L 130.461002 496.44 
L 132.25439 496.44 
L 134.047779 496.44 
L 135.841167 496.44 
L 137.634556 496.44 
L 139.427944 496.44 
L 141.221333 496.44 
L 143.014721 496.44 
L 144.80811 496.44 
L 146.601498 496.44 
L 148.394886 496.44 
L 150.188275 496.44 
L 151.981663 496.44 
L 153.775052 496.44 
L 155.56844 496.44 
L 157.361829 496.44 
L 159.155217 496.44 
L 160.948605 496.44 
L 162.741994 496.44 
L 164.535382 496.44 
L 166.328771 496.44 
L 168.122159 496.44 
L 169.915548 496.44 
L 171.708936 496.44 
L 173.502324 496.44 
L 175.295713 496.44 
L 177.089101 496.44 
L 178.88249 496.44 
L 180.675878 496.44 
L 182.469267 496.44 
L 184.262655 496.44 
L 186.056043 496.44 
L 187.849432 496.44 
L 189.64282 496.44 
L 191.436209 496.44 
L 193.229597 496.44 
L 195.022986 496.44 
L 196.816374 496.44 
L 198.609762 496.44 
L 200.403151 496.44 
L 202.196539 496.44 
L 203.989928 496.44 
L 205.783316 496.44 
L 207.576705 496.44 
L 209.370093 496.44 
L 211.163481 496.44 
L 212.95687 496.44 
L 214.750258 496.44 
L 216.543647 496.44 
L 218.337035 496.44 
L 220.130424 496.44 
L 221.923812 496.44 
L 223.7172 496.44 
L 225.510589 496.44 
L 227.303977 496.44 
L 227.303977 496.43935 
L 227.303977 496.43935 
L 225.510589 496.437431 
L 223.7172 496.431889 
L 221.923812 496.419461 
L 220.130424 496.398096 
L 218.337035 496.370742 
L 216.543647 496.346481 
L 214.750258 496.334656 
L 212.95687 496.334269 
L 211.163481 496.32771 
L 209.370093 496.286102 
L 207.576705 496.184734 
L 205.783316 496.018492 
L 203.989928 495.803156 
L 202.196539 495.556973 
L 200.403151 495.281998 
L 198.609762 494.974453 
L 196.816374 494.651602 
L 195.022986 494.342517 
L 193.229597 494.039113 
L 191.436209 493.680623 
L 189.64282 493.206845 
L 187.849432 492.608679 
L 186.056043 491.904371 
L 184.262655 491.077342 
L 182.469267 490.067093 
L 180.675878 488.837377 
L 178.88249 487.43778 
L 177.089101 485.968794 
L 175.295713 484.485885 
L 173.502324 482.949153 
L 171.708936 481.242189 
L 169.915548 479.231188 
L 168.122159 476.866268 
L 166.328771 474.266574 
L 164.535382 471.65755 
L 162.741994 469.170407 
L 160.948605 466.717232 
L 159.155217 464.084099 
L 157.361829 461.127281 
L 155.56844 457.887432 
L 153.775052 454.572141 
L 151.981663 451.447871 
L 150.188275 448.713317 
L 148.394886 446.45401 
L 146.601498 444.697317 
L 144.80811 443.458478 
L 143.014721 442.705355 
L 141.221333 442.306182 
L 139.427944 442.058122 
L 137.634556 441.817315 
L 135.841167 441.623193 
L 134.047779 441.660233 
L 132.25439 442.078369 
L 130.461002 442.885172 
L 128.667614 444.010124 
L 126.874225 445.413633 
L 125.080837 447.134157 
L 123.287448 449.302336 
L 121.49406 452.101129 
L 119.700671 455.601037 
L 117.907283 459.588894 
L 116.113895 463.610336 
L 114.320506 467.204485 
L 112.527118 470.112823 
L 110.733729 472.359299 
L 108.940341 474.220318 
L 107.146952 476.072818 
L 105.353564 478.15617 
L 103.560176 480.428229 
L 101.766787 482.660551 
L 99.973399 484.670369 
L 98.18001 486.448195 
L 96.386622 488.088145 
L 94.593233 489.645427 
L 92.799845 491.072552 
L 91.006457 492.262167 
L 89.213068 493.135394 
L 87.41968 493.708372 
L 85.626291 494.089653 
L 83.832903 494.404466 
L 82.039514 494.712254 
L 80.246126 494.999961 
L 78.452738 495.245238 
L 76.659349 495.46008 
L 74.865961 495.668973 
L 73.072572 495.873423 
L 71.279184 496.055117 
L 69.485795 496.198484 
L 67.692407 496.298113 
L 65.899019 496.355179 
L 64.10563 496.377772 
L 62.312242 496.381664 
L 60.518853 496.383936 
L 58.725465 496.393618 
L 56.932076 496.40899 
L 55.138688 496.423536 
L 53.3453 496.43309 
L 51.551911 496.43771 
L 49.758523 496.439401 
z
" style="fill:#1f77b4;fill-opacity:0.25;"></path>
   </g>
   <g id="matplotlib.axis_11">
    <g id="xtick_27">
     <g id="line2d_47">
      <g>
       <use style="stroke:#000000;stroke-width:0.8;" x="59.367327" xlink:href="#mccce750f17" y="496.44"></use>
      </g>
     </g>
     <g id="text_42">
      <!-- 0.47 -->
      <g transform="translate(48.234515 511.038437)scale(0.1 -0.1)">
       <use xlink:href="#DejaVuSans-48"></use>
       <use x="63.623047" xlink:href="#DejaVuSans-46"></use>
       <use x="95.410156" xlink:href="#DejaVuSans-52"></use>
       <use x="159.033203" xlink:href="#DejaVuSans-55"></use>
      </g>
     </g>
    </g>
    <g id="xtick_28">
     <g id="line2d_48">
      <g>
       <use style="stroke:#000000;stroke-width:0.8;" x="93.471017" xlink:href="#mccce750f17" y="496.44"></use>
      </g>
     </g>
     <g id="text_43">
      <!-- 0.48 -->
      <g transform="translate(82.338205 511.038437)scale(0.1 -0.1)">
       <use xlink:href="#DejaVuSans-48"></use>
       <use x="63.623047" xlink:href="#DejaVuSans-46"></use>
       <use x="95.410156" xlink:href="#DejaVuSans-52"></use>
       <use x="159.033203" xlink:href="#DejaVuSans-56"></use>
      </g>
     </g>
    </g>
    <g id="xtick_29">
     <g id="line2d_49">
      <g>
       <use style="stroke:#000000;stroke-width:0.8;" x="127.574707" xlink:href="#mccce750f17" y="496.44"></use>
      </g>
     </g>
     <g id="text_44">
      <!-- 0.49 -->
      <defs>
       <path d="M 10.984375 1.515625 
L 10.984375 10.5 
Q 14.703125 8.734375 18.5 7.8125 
Q 22.3125 6.890625 25.984375 6.890625 
Q 35.75 6.890625 40.890625 13.453125 
Q 46.046875 20.015625 46.78125 33.40625 
Q 43.953125 29.203125 39.59375 26.953125 
Q 35.25 24.703125 29.984375 24.703125 
Q 19.046875 24.703125 12.671875 31.3125 
Q 6.296875 37.9375 6.296875 49.421875 
Q 6.296875 60.640625 12.9375 67.421875 
Q 19.578125 74.21875 30.609375 74.21875 
Q 43.265625 74.21875 49.921875 64.515625 
Q 56.59375 54.828125 56.59375 36.375 
Q 56.59375 19.140625 48.40625 8.859375 
Q 40.234375 -1.421875 26.421875 -1.421875 
Q 22.703125 -1.421875 18.890625 -0.6875 
Q 15.09375 0.046875 10.984375 1.515625 
z
M 30.609375 32.421875 
Q 37.25 32.421875 41.125 36.953125 
Q 45.015625 41.5 45.015625 49.421875 
Q 45.015625 57.28125 41.125 61.84375 
Q 37.25 66.40625 30.609375 66.40625 
Q 23.96875 66.40625 20.09375 61.84375 
Q 16.21875 57.28125 16.21875 49.421875 
Q 16.21875 41.5 20.09375 36.953125 
Q 23.96875 32.421875 30.609375 32.421875 
z
" id="DejaVuSans-57"></path>
      </defs>
      <g transform="translate(116.441895 511.038437)scale(0.1 -0.1)">
       <use xlink:href="#DejaVuSans-48"></use>
       <use x="63.623047" xlink:href="#DejaVuSans-46"></use>
       <use x="95.410156" xlink:href="#DejaVuSans-52"></use>
       <use x="159.033203" xlink:href="#DejaVuSans-57"></use>
      </g>
     </g>
    </g>
    <g id="xtick_30">
     <g id="line2d_50">
      <g>
       <use style="stroke:#000000;stroke-width:0.8;" x="161.678397" xlink:href="#mccce750f17" y="496.44"></use>
      </g>
     </g>
     <g id="text_45">
      <!-- 0.50 -->
      <g transform="translate(150.545585 511.038437)scale(0.1 -0.1)">
       <use xlink:href="#DejaVuSans-48"></use>
       <use x="63.623047" xlink:href="#DejaVuSans-46"></use>
       <use x="95.410156" xlink:href="#DejaVuSans-53"></use>
       <use x="159.033203" xlink:href="#DejaVuSans-48"></use>
      </g>
     </g>
    </g>
    <g id="xtick_31">
     <g id="line2d_51">
      <g>
       <use style="stroke:#000000;stroke-width:0.8;" x="195.782087" xlink:href="#mccce750f17" y="496.44"></use>
      </g>
     </g>
     <g id="text_46">
      <!-- 0.51 -->
      <g transform="translate(184.649274 511.038437)scale(0.1 -0.1)">
       <use xlink:href="#DejaVuSans-48"></use>
       <use x="63.623047" xlink:href="#DejaVuSans-46"></use>
       <use x="95.410156" xlink:href="#DejaVuSans-53"></use>
       <use x="159.033203" xlink:href="#DejaVuSans-49"></use>
      </g>
     </g>
    </g>
    <g id="xtick_32">
     <g id="line2d_52">
      <g>
       <use style="stroke:#000000;stroke-width:0.8;" x="229.885777" xlink:href="#mccce750f17" y="496.44"></use>
      </g>
     </g>
     <g id="text_47">
      <!-- 0.52 -->
      <g transform="translate(218.752964 511.038437)scale(0.1 -0.1)">
       <use xlink:href="#DejaVuSans-48"></use>
       <use x="63.623047" xlink:href="#DejaVuSans-46"></use>
       <use x="95.410156" xlink:href="#DejaVuSans-53"></use>
       <use x="159.033203" xlink:href="#DejaVuSans-50"></use>
      </g>
     </g>
    </g>
   </g>
   <g id="matplotlib.axis_12">
    <g id="ytick_11">
     <g id="line2d_53">
      <g>
       <use style="stroke:#000000;stroke-width:0.8;" x="40.88125" xlink:href="#m4ade5c4b6b" y="496.44"></use>
      </g>
     </g>
     <g id="text_48">
      <!-- 0 -->
      <g transform="translate(27.51875 500.239219)scale(0.1 -0.1)">
       <use xlink:href="#DejaVuSans-48"></use>
      </g>
     </g>
    </g>
    <g id="ytick_12">
     <g id="line2d_54">
      <g>
       <use style="stroke:#000000;stroke-width:0.8;" x="40.88125" xlink:href="#m4ade5c4b6b" y="452.63499"></use>
      </g>
     </g>
     <g id="text_49">
      <!-- 50 -->
      <g transform="translate(21.15625 456.434208)scale(0.1 -0.1)">
       <use xlink:href="#DejaVuSans-53"></use>
       <use x="63.623047" xlink:href="#DejaVuSans-48"></use>
      </g>
     </g>
    </g>
    <g id="text_50">
     <!-- noise_std -->
     <defs>
      <path d="M 54.890625 33.015625 
L 54.890625 0 
L 45.90625 0 
L 45.90625 32.71875 
Q 45.90625 40.484375 42.875 44.328125 
Q 39.84375 48.1875 33.796875 48.1875 
Q 26.515625 48.1875 22.3125 43.546875 
Q 18.109375 38.921875 18.109375 30.90625 
L 18.109375 0 
L 9.078125 0 
L 9.078125 54.6875 
L 18.109375 54.6875 
L 18.109375 46.1875 
Q 21.34375 51.125 25.703125 53.5625 
Q 30.078125 56 35.796875 56 
Q 45.21875 56 50.046875 50.171875 
Q 54.890625 44.34375 54.890625 33.015625 
z
" id="DejaVuSans-110"></path>
      <path d="M 30.609375 48.390625 
Q 23.390625 48.390625 19.1875 42.75 
Q 14.984375 37.109375 14.984375 27.296875 
Q 14.984375 17.484375 19.15625 11.84375 
Q 23.34375 6.203125 30.609375 6.203125 
Q 37.796875 6.203125 41.984375 11.859375 
Q 46.1875 17.53125 46.1875 27.296875 
Q 46.1875 37.015625 41.984375 42.703125 
Q 37.796875 48.390625 30.609375 48.390625 
z
M 30.609375 56 
Q 42.328125 56 49.015625 48.375 
Q 55.71875 40.765625 55.71875 27.296875 
Q 55.71875 13.875 49.015625 6.21875 
Q 42.328125 -1.421875 30.609375 -1.421875 
Q 18.84375 -1.421875 12.171875 6.21875 
Q 5.515625 13.875 5.515625 27.296875 
Q 5.515625 40.765625 12.171875 48.375 
Q 18.84375 56 30.609375 56 
z
" id="DejaVuSans-111"></path>
      <path d="M 9.421875 54.6875 
L 18.40625 54.6875 
L 18.40625 0 
L 9.421875 0 
z
M 9.421875 75.984375 
L 18.40625 75.984375 
L 18.40625 64.59375 
L 9.421875 64.59375 
z
" id="DejaVuSans-105"></path>
      <path d="M 44.28125 53.078125 
L 44.28125 44.578125 
Q 40.484375 46.53125 36.375 47.5 
Q 32.28125 48.484375 27.875 48.484375 
Q 21.1875 48.484375 17.84375 46.4375 
Q 14.5 44.390625 14.5 40.28125 
Q 14.5 37.15625 16.890625 35.375 
Q 19.28125 33.59375 26.515625 31.984375 
L 29.59375 31.296875 
Q 39.15625 29.25 43.1875 25.515625 
Q 47.21875 21.78125 47.21875 15.09375 
Q 47.21875 7.46875 41.1875 3.015625 
Q 35.15625 -1.421875 24.609375 -1.421875 
Q 20.21875 -1.421875 15.453125 -0.5625 
Q 10.6875 0.296875 5.421875 2 
L 5.421875 11.28125 
Q 10.40625 8.6875 15.234375 7.390625 
Q 20.0625 6.109375 24.8125 6.109375 
Q 31.15625 6.109375 34.5625 8.28125 
Q 37.984375 10.453125 37.984375 14.40625 
Q 37.984375 18.0625 35.515625 20.015625 
Q 33.0625 21.96875 24.703125 23.78125 
L 21.578125 24.515625 
Q 13.234375 26.265625 9.515625 29.90625 
Q 5.8125 33.546875 5.8125 39.890625 
Q 5.8125 47.609375 11.28125 51.796875 
Q 16.75 56 26.8125 56 
Q 31.78125 56 36.171875 55.265625 
Q 40.578125 54.546875 44.28125 53.078125 
z
" id="DejaVuSans-115"></path>
      <path d="M 56.203125 29.59375 
L 56.203125 25.203125 
L 14.890625 25.203125 
Q 15.484375 15.921875 20.484375 11.0625 
Q 25.484375 6.203125 34.421875 6.203125 
Q 39.59375 6.203125 44.453125 7.46875 
Q 49.3125 8.734375 54.109375 11.28125 
L 54.109375 2.78125 
Q 49.265625 0.734375 44.1875 -0.34375 
Q 39.109375 -1.421875 33.890625 -1.421875 
Q 20.796875 -1.421875 13.15625 6.1875 
Q 5.515625 13.8125 5.515625 26.8125 
Q 5.515625 40.234375 12.765625 48.109375 
Q 20.015625 56 32.328125 56 
Q 43.359375 56 49.78125 48.890625 
Q 56.203125 41.796875 56.203125 29.59375 
z
M 47.21875 32.234375 
Q 47.125 39.59375 43.09375 43.984375 
Q 39.0625 48.390625 32.421875 48.390625 
Q 24.90625 48.390625 20.390625 44.140625 
Q 15.875 39.890625 15.1875 32.171875 
z
" id="DejaVuSans-101"></path>
      <path d="M 18.3125 70.21875 
L 18.3125 54.6875 
L 36.8125 54.6875 
L 36.8125 47.703125 
L 18.3125 47.703125 
L 18.3125 18.015625 
Q 18.3125 11.328125 20.140625 9.421875 
Q 21.96875 7.515625 27.59375 7.515625 
L 36.8125 7.515625 
L 36.8125 0 
L 27.59375 0 
Q 17.1875 0 13.234375 3.875 
Q 9.28125 7.765625 9.28125 18.015625 
L 9.28125 47.703125 
L 2.6875 47.703125 
L 2.6875 54.6875 
L 9.28125 54.6875 
L 9.28125 70.21875 
z
" id="DejaVuSans-116"></path>
      <path d="M 45.40625 46.390625 
L 45.40625 75.984375 
L 54.390625 75.984375 
L 54.390625 0 
L 45.40625 0 
L 45.40625 8.203125 
Q 42.578125 3.328125 38.25 0.953125 
Q 33.9375 -1.421875 27.875 -1.421875 
Q 17.96875 -1.421875 11.734375 6.484375 
Q 5.515625 14.40625 5.515625 27.296875 
Q 5.515625 40.1875 11.734375 48.09375 
Q 17.96875 56 27.875 56 
Q 33.9375 56 38.25 53.625 
Q 42.578125 51.265625 45.40625 46.390625 
z
M 14.796875 27.296875 
Q 14.796875 17.390625 18.875 11.75 
Q 22.953125 6.109375 30.078125 6.109375 
Q 37.203125 6.109375 41.296875 11.75 
Q 45.40625 17.390625 45.40625 27.296875 
Q 45.40625 37.203125 41.296875 42.84375 
Q 37.203125 48.484375 30.078125 48.484375 
Q 22.953125 48.484375 18.875 42.84375 
Q 14.796875 37.203125 14.796875 27.296875 
z
" id="DejaVuSans-100"></path>
     </defs>
     <g transform="translate(14.798438 491.198676)rotate(-90)scale(0.1 -0.1)">
      <use xlink:href="#DejaVuSans-110"></use>
      <use x="63.378906" xlink:href="#DejaVuSans-111"></use>
      <use x="124.560547" xlink:href="#DejaVuSans-105"></use>
      <use x="152.34375" xlink:href="#DejaVuSans-115"></use>
      <use x="204.443359" xlink:href="#DejaVuSans-101"></use>
      <use x="265.966797" xlink:href="#DejaVuSans-95"></use>
      <use x="315.966797" xlink:href="#DejaVuSans-115"></use>
      <use x="368.066406" xlink:href="#DejaVuSans-116"></use>
      <use x="407.275391" xlink:href="#DejaVuSans-100"></use>
     </g>
    </g>
   </g>
   <g id="line2d_55">
    <path clip-path="url(#pb7bb78d5c0)" d="M 49.758523 496.439401 
L 51.551911 496.43771 
L 53.3453 496.43309 
L 55.138688 496.423536 
L 56.932076 496.40899 
L 58.725465 496.393618 
L 60.518853 496.383936 
L 62.312242 496.381664 
L 64.10563 496.377772 
L 65.899019 496.355179 
L 67.692407 496.298113 
L 69.485795 496.198484 
L 71.279184 496.055117 
L 73.072572 495.873423 
L 74.865961 495.668973 
L 76.659349 495.46008 
L 78.452738 495.245238 
L 80.246126 494.999961 
L 82.039514 494.712254 
L 83.832903 494.404466 
L 85.626291 494.089653 
L 87.41968 493.708372 
L 89.213068 493.135394 
L 91.006457 492.262167 
L 92.799845 491.072552 
L 94.593233 489.645427 
L 96.386622 488.088145 
L 98.18001 486.448195 
L 99.973399 484.670369 
L 101.766787 482.660551 
L 103.560176 480.428229 
L 105.353564 478.15617 
L 107.146952 476.072818 
L 108.940341 474.220318 
L 110.733729 472.359299 
L 112.527118 470.112823 
L 114.320506 467.204485 
L 116.113895 463.610336 
L 117.907283 459.588894 
L 119.700671 455.601037 
L 121.49406 452.101129 
L 123.287448 449.302336 
L 125.080837 447.134157 
L 126.874225 445.413633 
L 128.667614 444.010124 
L 130.461002 442.885172 
L 132.25439 442.078369 
L 134.047779 441.660233 
L 135.841167 441.623193 
L 137.634556 441.817315 
L 139.427944 442.058122 
L 141.221333 442.306182 
L 143.014721 442.705355 
L 144.80811 443.458478 
L 146.601498 444.697317 
L 148.394886 446.45401 
L 150.188275 448.713317 
L 151.981663 451.447871 
L 153.775052 454.572141 
L 155.56844 457.887432 
L 157.361829 461.127281 
L 159.155217 464.084099 
L 160.948605 466.717232 
L 162.741994 469.170407 
L 164.535382 471.65755 
L 166.328771 474.266574 
L 168.122159 476.866268 
L 169.915548 479.231188 
L 171.708936 481.242189 
L 173.502324 482.949153 
L 175.295713 484.485885 
L 177.089101 485.968794 
L 178.88249 487.43778 
L 180.675878 488.837377 
L 182.469267 490.067093 
L 184.262655 491.077342 
L 186.056043 491.904371 
L 187.849432 492.608679 
L 189.64282 493.206845 
L 191.436209 493.680623 
L 193.229597 494.039113 
L 195.022986 494.342517 
L 196.816374 494.651602 
L 198.609762 494.974453 
L 200.403151 495.281998 
L 202.196539 495.556973 
L 203.989928 495.803156 
L 205.783316 496.018492 
L 207.576705 496.184734 
L 209.370093 496.286102 
L 211.163481 496.32771 
L 212.95687 496.334269 
L 214.750258 496.334656 
L 216.543647 496.346481 
L 218.337035 496.370742 
L 220.130424 496.398096 
L 221.923812 496.419461 
L 223.7172 496.431889 
L 225.510589 496.437431 
L 227.303977 496.43935 
" style="fill:none;stroke:#1f77b4;stroke-linecap:square;stroke-width:1.5;"></path>
   </g>
   <g id="line2d_56">
    <path clip-path="url(#pb7bb78d5c0)" d="M 161.678397 496.44 
L 161.678397 438.882353 
" style="fill:none;stroke:#1f77b4;stroke-dasharray:5.55,2.4;stroke-dashoffset:0;stroke-width:1.5;"></path>
   </g>
   <g id="patch_28">
    <path d="M 40.88125 496.44 
L 40.88125 438.882353 
" style="fill:none;stroke:#000000;stroke-linecap:square;stroke-linejoin:miter;stroke-width:0.8;"></path>
   </g>
   <g id="patch_29">
    <path d="M 236.18125 496.44 
L 236.18125 438.882353 
" style="fill:none;stroke:#000000;stroke-linecap:square;stroke-linejoin:miter;stroke-width:0.8;"></path>
   </g>
   <g id="patch_30">
    <path d="M 40.88125 496.44 
L 236.18125 496.44 
" style="fill:none;stroke:#000000;stroke-linecap:square;stroke-linejoin:miter;stroke-width:0.8;"></path>
   </g>
   <g id="patch_31">
    <path d="M 40.88125 438.882353 
L 236.18125 438.882353 
" style="fill:none;stroke:#000000;stroke-linecap:square;stroke-linejoin:miter;stroke-width:0.8;"></path>
   </g>
  </g>
 </g>
 <defs>
  <clipPath id="p6df0a10000">
   <rect height="57.557647" width="195.3" x="40.88125" y="7.2"></rect>
  </clipPath>
  <clipPath id="p71db9f3c8b">
   <rect height="57.557647" width="195.3" x="40.88125" y="93.536471"></rect>
  </clipPath>
  <clipPath id="p2fbd3ce93d">
   <rect height="57.557647" width="195.3" x="40.88125" y="179.872941"></rect>
  </clipPath>
  <clipPath id="p6051468265">
   <rect height="57.557647" width="195.3" x="40.88125" y="266.209412"></rect>
  </clipPath>
  <clipPath id="p44a094f2bb">
   <rect height="57.557647" width="195.3" x="40.88125" y="352.545882"></rect>
  </clipPath>
  <clipPath id="pb7bb78d5c0">
   <rect height="57.557647" width="195.3" x="40.88125" y="438.882353"></rect>
  </clipPath>
 </defs>
</svg>